<?xml version="1.0" encoding="UTF-8"?>
<svg version="1.1" xmlns="http://www.w3.org/2000/svg" width="8254" height="1061">
<path d="M0 0 C1.56358544 -0.00224105 3.12716982 -0.0053563 4.69075201 -0.00925181 C8.96022602 -0.01738944 13.22961003 -0.01323947 17.49908384 -0.00696007 C22.17154656 -0.00232594 26.84399488 -0.00938294 31.51645464 -0.01489371 C39.72801177 -0.02298007 47.93954356 -0.02366244 56.15110323 -0.01948182 C68.44429999 -0.01325758 80.73747358 -0.01856519 93.03066867 -0.02607924 C113.98395776 -0.0385436 134.93723858 -0.04149192 155.89053082 -0.03924429 C177.12402196 -0.0369953 198.35750725 -0.0390491 219.59099698 -0.04638922 C220.9458187 -0.04685321 222.30064042 -0.04731715 223.65546215 -0.04778106 C229.11830975 -0.04966018 234.58115735 -0.05157278 240.04400493 -0.05352344 C255.4422128 -0.05901367 270.84042085 -0.06377266 286.2386291 -0.06802738 C286.94419674 -0.06822248 287.64976437 -0.06841758 288.37671284 -0.06861859 C328.48999311 -0.07962533 368.60327376 -0.08023769 408.71655527 -0.08106031 C414.84780703 -0.08118681 420.9790588 -0.08131985 427.11031056 -0.08146141 C428.64710389 -0.0814968 430.18389723 -0.08153155 431.72069056 -0.08156566 C466.22247941 -0.08234148 500.72426744 -0.0866996 535.22605588 -0.09182617 C542.92811655 -0.09296929 550.63017723 -0.09407725 558.33223791 -0.09518743 C559.09678045 -0.09529768 559.86132298 -0.09540792 560.64903348 -0.0955215 C565.2899949 -0.09619051 569.93095632 -0.09685805 574.57191775 -0.09752463 C576.89682574 -0.09785879 579.22173374 -0.09819381 581.54664173 -0.09852891 C617.69426275 -0.10373255 653.84188384 -0.10819319 689.98950505 -0.1118933 C690.77709774 -0.11197404 691.56469043 -0.11205478 692.37614956 -0.11213797 C742.56069096 -0.11726383 792.74523191 -0.11906301 842.92977356 -0.1185373 C845.3972797 -0.11851179 847.86478584 -0.11848786 850.33229197 -0.11846448 C867.66715382 -0.1182998 885.00201566 -0.11809438 902.3368775 -0.11787872 C907.30705721 -0.11781718 912.27723692 -0.11775705 917.24741663 -0.11769709 C921.39319326 -0.1176469 925.5389699 -0.11759532 929.68474654 -0.11754086 C1007.97943853 -0.11651813 1086.27412639 -0.11935108 1164.56881642 -0.13823569 C1165.39298665 -0.13843441 1166.21715688 -0.13863312 1167.06630196 -0.13883786 C1192.81728263 -0.14506056 1218.56826316 -0.15179354 1244.31924367 -0.15862143 C1270.74239401 -0.16562446 1297.16554436 -0.17256548 1323.58869481 -0.17915022 C1324.80912534 -0.1794548 1324.80912534 -0.1794548 1326.05421103 -0.17976553 C1377.0233293 -0.19246737 1427.99244641 -0.20030827 1478.96156621 -0.2028662 C1479.74897768 -0.20290625 1480.53638915 -0.20294631 1481.34766158 -0.20298758 C1515.93167865 -0.20473837 1550.51569567 -0.20537772 1585.09971278 -0.2048058 C1599.01361017 -0.20457725 1612.92750756 -0.20446511 1626.84140495 -0.20439916 C1629.1483314 -0.20438636 1631.45525786 -0.20436821 1633.76218431 -0.20434886 C1669.03009681 -0.20407602 1704.29800554 -0.20675925 1739.5659163 -0.21843922 C1740.70592052 -0.21881624 1740.70592052 -0.21881624 1741.86895513 -0.21920087 C1754.09365225 -0.22325865 1766.3183493 -0.22754677 1778.54304634 -0.23185449 C1813.26405914 -0.2440794 1847.98506686 -0.25415599 1882.70608211 -0.24991214 C1883.41127951 -0.24982672 1884.11647692 -0.24974129 1884.84304394 -0.24965327 C1900.23186621 -0.24774611 1915.62068804 -0.24471396 1931.00950986 -0.24057984 C1937.14793294 -0.23894731 1943.28635605 -0.23746002 1949.42477918 -0.23601782 C1950.0943568 -0.23585652 1950.76393442 -0.23569522 1951.45380227 -0.23552902 C1973.29842136 -0.23033716 1995.14301669 -0.23859188 2016.98763165 -0.2533602 C2037.8138191 -0.26715857 2058.63996568 -0.26663429 2079.46615224 -0.25097592 C2091.66845832 -0.24222674 2103.8706439 -0.24432375 2116.07293994 -0.26270949 C2124.19011636 -0.2738384 2132.30720338 -0.27030117 2140.42437301 -0.25514393 C2145.01729108 -0.24696887 2149.60997306 -0.24471153 2154.20287617 -0.26064531 C2221.48310949 -0.47828607 2285.06212002 18.34394824 2337.79629445 61.25299966 C2338.33109426 61.6848356 2338.86589406 62.11667154 2339.41689992 62.56159341 C2353.84518073 74.29812599 2367.50635017 87.44883301 2378.79629445 102.25299966 C2379.78302935 103.48991191 2380.77144499 104.72548442 2381.7611382 105.96003091 C2407.68574862 138.63466057 2425.84471111 177.39932154 2434.54629445 218.19049966 C2434.73288625 219.05731363 2434.91947804 219.92412759 2435.11172414 220.81720865 C2438.80148864 239.22131679 2440.24233107 257.47676255 2440.17724538 276.21271646 C2440.18071238 278.42707013 2440.18548387 280.64142206 2440.19142711 282.85577047 C2440.20382363 288.87069298 2440.19781907 294.88547068 2440.18846846 300.90039337 C2440.18233583 306.74319511 2440.19039954 312.58596746 2440.19791055 318.42876509 C2440.21362573 331.09973229 2440.21237155 343.77065383 2440.20367382 356.44162527 C2440.19610008 367.53080368 2440.19416959 378.61996543 2440.19774175 389.7091459 C2440.1979709 390.4473089 2440.19820006 391.18547189 2440.19843616 391.94600346 C2440.19937031 394.94312845 2440.20032553 397.94025344 2440.20131545 400.93737842 C2440.21047381 429.00084431 2440.20220171 457.06428127 2440.18602476 485.12774269 C2440.17179002 510.01098186 2440.17306399 534.89417496 2440.18740773 559.77741373 C2440.20350319 587.79252234 2440.20982407 615.80760543 2440.20057094 643.82271802 C2440.19960892 646.81409648 2440.19867039 649.80547495 2440.19774175 652.79685342 C2440.19750451 653.53330184 2440.19726728 654.26975026 2440.19702286 655.0285153 C2440.19362345 666.10541549 2440.19757689 677.18229712 2440.20518041 688.25919473 C2440.21379114 700.86557599 2440.21154389 713.47190482 2440.19533817 726.07827961 C2440.18749239 732.5014153 2440.18430043 738.92445787 2440.19428563 745.34759271 C2440.20331006 751.24215709 2440.19817377 757.13654319 2440.18235298 763.03109169 C2440.17903766 765.14856345 2440.18062462 767.26605068 2440.18798034 769.38351226 C2440.24737285 787.921602 2438.45322378 806.17028321 2434.54629445 824.31549966 C2434.33577443 825.30042398 2434.12525441 826.2853483 2433.908355 827.3001188 C2424.69844156 868.76295686 2405.39968789 907.29296985 2378.79629445 940.25299966 C2378.08618215 941.1388273 2378.08618215 941.1388273 2377.36172414 942.04255044 C2365.46647389 956.75862642 2351.92110487 970.85056126 2336.79629445 982.25299966 C2335.63532674 983.16472774 2334.47523413 984.07757079 2333.3158257 984.99128091 C2300.69768538 1010.39900753 2262.30183099 1028.37568196 2221.85879445 1037.00299966 C2220.99198049 1037.18959146 2220.12516652 1037.37618326 2219.23208547 1037.56842935 C2216.09588155 1038.19719407 2212.95143093 1038.72621269 2209.79629445 1039.25299966 C2209.10281372 1039.37416441 2208.409333 1039.49532917 2207.6948377 1039.62016558 C2189.27784563 1042.74849973 2170.94000842 1042.68110287 2152.3290531 1042.63522564 C2147.65091242 1042.62708887 2142.97279902 1042.63660478 2138.29466122 1042.64373618 C2130.08245925 1042.6538692 2121.87031711 1042.65295462 2113.6581139 1042.64468555 C2101.36414446 1042.63236255 2089.07022319 1042.63745337 2076.77625261 1042.64583348 C2055.81952034 1042.65961144 2034.86280994 1042.6591942 2013.90607572 1042.65099084 C1992.67510846 1042.64273081 1971.44415294 1042.64097657 1950.21318555 1042.64720285 C1949.2075164 1042.64749316 1949.2075164 1042.64749316 1948.1815307 1042.64778934 C1942.03699623 1042.64956404 1935.89246178 1042.65140576 1929.74792735 1042.65332797 C1914.34195876 1042.65813966 1898.93598999 1042.661908 1883.53002095 1042.66496909 C1882.82417191 1042.66510979 1882.11832287 1042.66525049 1881.39108446 1042.66539546 C1846.62101744 1042.67222708 1811.85095298 1042.66762538 1777.08088613 1042.66188562 C1775.55831277 1042.66163471 1774.03573942 1042.66138381 1772.51316607 1042.66113293 C1771.38127231 1042.66094638 1771.38127231 1042.66094638 1770.22651201 1042.66075606 C1760.27496446 1042.65911645 1750.3234169 1042.65750661 1740.37186933 1042.65597618 C1739.23078939 1042.65579995 1739.23078939 1042.65579995 1738.06665733 1042.65562017 C1702.79750666 1042.65021392 1667.52835727 1042.65150278 1632.25920642 1042.65426754 C1628.41038211 1042.65456694 1624.5615578 1042.65485343 1620.7127335 1042.65514137 C1609.11161626 1042.65601316 1597.51049902 1042.65690398 1585.90938179 1042.65783417 C1550.53369624 1042.66066761 1515.15801068 1042.66246844 1479.78232503 1042.66337907 C1478.99469113 1042.66339968 1478.20705723 1042.66342028 1477.39555564 1042.66344151 C1426.39448852 1042.66475753 1375.39342284 1042.66145647 1324.39235616 1042.65483034 C1323.57829603 1042.65472498 1322.76423591 1042.65461963 1321.9255073 1042.65451108 C1294.65933795 1042.65098213 1267.39316863 1042.64721388 1240.12699932 1042.64342119 C1157.67625487 1042.63196016 1075.22551554 1042.62567904 927.97819266 1042.64376718 C900.7188727 1042.64755687 873.45955274 1042.65130247 846.20023274 1042.65483034 C845.38640092 1042.65493607 844.57256911 1042.6550418 843.73407572 1042.65515074 C792.75947158 1042.66176776 741.78486843 1042.66471262 690.81026387 1042.66337907 C689.62920747 1042.66334867 689.62920747 1042.66334867 688.42429134 1042.66331765 C653.06817334 1042.66239744 617.71205543 1042.66048244 582.35593753 1042.65764756 C570.75997173 1042.65671894 559.16400593 1042.65583593 547.56804013 1042.65496842 C543.72143683 1042.65468044 539.87483353 1042.65438838 536.02823024 1042.65408684 C500.75905937 1042.65133051 465.48989022 1042.65052932 430.22071958 1042.65597618 C429.08036461 1042.65615155 429.08036461 1042.65615155 427.91697217 1042.65633047 C417.97112238 1042.65786578 408.02527261 1042.65949372 398.07942283 1042.66113293 C396.94842503 1042.66131929 396.94842503 1042.66131929 395.79457878 1042.66150942 C394.27339174 1042.6617601 392.7522047 1042.662011 391.23101767 1042.66226211 C356.50820011 1042.66797914 321.7853856 1042.67189074 287.06256795 1042.66496909 C286.00519203 1042.66475899 286.00519203 1042.66475899 284.92645498 1042.66454465 C269.54554035 1042.66145381 254.16462607 1042.6574949 238.78371189 1042.65268324 C232.6489424 1042.65077564 226.51417288 1042.64897381 220.37940335 1042.64720285 C219.71021823 1042.6470066 219.0410331 1042.64681035 218.35156964 1042.64660816 C196.50302111 1042.64025128 174.65448476 1042.64395741 152.80593684 1042.65250987 C131.98578237 1042.66044598 111.16565217 1042.65765953 90.34550078 1042.6434676 C78.14025178 1042.63546526 65.93506932 1042.63562263 53.7298235 1042.64791239 C45.61839355 1042.65525712 37.50701528 1042.65167697 29.39559155 1042.63931183 C24.80107803 1042.63260984 20.20669676 1042.63043562 15.61218929 1042.64176138 C-2.8647729 1042.68418815 -20.93651527 1042.44464323 -39.20370555 1039.25299966 C-40.45493328 1039.04408919 -41.70616101 1038.83517872 -42.99530473 1038.61993762 C-45.76862685 1038.13968918 -48.51485653 1037.59540517 -51.26620555 1037.00299966 C-52.74359202 1036.68721963 -52.74359202 1036.68721963 -54.25082469 1036.36506021 C-95.70714862 1027.15659372 -134.25397775 1007.8624261 -167.20370555 981.25299966 C-167.79957469 980.77427408 -168.39544383 980.29554849 -169.00936961 979.80231607 C-183.38858257 968.14907785 -196.97177357 954.98109651 -208.20370555 940.25299966 C-209.19044045 939.01608741 -210.17885609 937.7805149 -211.1685493 936.54596841 C-237.09315971 903.87133875 -255.25212221 865.10667779 -263.95370555 824.31549966 C-264.14029735 823.4486857 -264.32688914 822.58187173 -264.51913524 821.68879068 C-268.20889974 803.28468254 -269.64974217 785.02923677 -269.58465648 766.29328287 C-269.58812348 764.0789292 -269.59289496 761.86457726 -269.59883821 759.65022886 C-269.61123473 753.63530635 -269.60523016 747.62052864 -269.59587955 741.60560596 C-269.58974693 735.76280422 -269.59781063 729.92003187 -269.60532165 724.07723424 C-269.62103683 711.40626704 -269.61978265 698.7353455 -269.61108491 686.06437406 C-269.60351118 674.97519565 -269.60158069 663.88603389 -269.60515285 652.79685342 C-269.605382 652.05869043 -269.60561116 651.32052744 -269.60584726 650.55999587 C-269.60678141 647.56287087 -269.60773662 644.56574589 -269.60872655 641.56862091 C-269.61788491 613.50515502 -269.60961281 585.44171805 -269.59343586 557.37825663 C-269.57920112 532.49501746 -269.58047509 507.61182437 -269.59481883 482.7285856 C-269.61091429 454.71347699 -269.61723517 426.6983939 -269.60798204 398.6832813 C-269.60702002 395.69190284 -269.60608149 392.70052437 -269.60515285 389.7091459 C-269.60491561 388.97269748 -269.60467838 388.23624906 -269.60443396 387.47748403 C-269.60103455 376.40058384 -269.60498799 365.32370221 -269.61259151 354.24680459 C-269.62120224 341.64042334 -269.61895498 329.03409451 -269.60274927 316.42771971 C-269.59490348 310.00458403 -269.59171153 303.58154146 -269.60169673 297.15840662 C-269.61072116 291.26384223 -269.60558487 285.36945614 -269.58976407 279.47490764 C-269.58644876 277.35743588 -269.58803572 275.23994865 -269.59539144 273.12248707 C-269.65478395 254.58439733 -267.86063488 236.33571611 -263.95370555 218.19049966 C-263.74318553 217.20557535 -263.53266551 216.22065103 -263.3157661 215.20588052 C-254.10729961 173.74955659 -234.81313199 135.20272746 -208.20370555 102.25299966 C-207.72497996 101.65713052 -207.24625438 101.06126138 -206.75302196 100.4473356 C-195.09978374 86.06812264 -181.9318024 72.48493164 -167.20370555 61.25299966 C-165.9667933 60.26626476 -164.73122079 59.27784912 -163.4966743 58.28815591 C-117.65115669 21.91353758 -58.72926697 -0.19690214 0 0 Z M200.04629445 150.06549966 C194.67235364 157.67858248 194.64550823 166.68698676 194.65103078 175.69757974 C194.64767217 176.50037866 194.64431355 177.30317758 194.64085317 178.13030374 C194.63142291 180.76106226 194.62940408 183.39175659 194.6283257 186.02253091 C194.62510765 187.8680461 194.62174317 189.71356104 194.61823964 191.55907571 C194.6122682 195.41970286 194.6103977 199.28030768 194.61099172 203.14093912 C194.61109323 208.06312962 194.59744294 212.98517554 194.58021951 217.90733182 C194.56904577 221.71741764 194.56707415 225.52746908 194.56760144 229.33756959 C194.56642934 231.15106267 194.56205134 232.96455686 194.55426908 234.77803361 C193.96780695 252.2423176 193.96780695 252.2423176 199.79629445 268.25299966 C207.99712279 276.27158738 217.90230914 276.4088537 228.75048852 276.38328493 C229.62136103 276.38522835 230.49223353 276.38717178 231.38949612 276.3891741 C234.30396457 276.394483 237.2183854 276.3927339 240.13285756 276.39103067 C242.24509474 276.3934497 244.35733144 276.39631227 246.46956748 276.39958 C252.27154323 276.40732555 258.07350716 276.40895201 263.87548745 276.40963113 C270.13404623 276.41147224 276.39259812 276.41907994 282.65115285 276.42611063 C292.79290669 276.43688509 302.93465778 276.4450623 313.07641533 276.45099074 C330.20245647 276.46103509 347.32847777 276.48029476 364.45450697 276.50253312 C371.04810073 276.51106289 377.64169482 276.51932952 384.23528886 276.52763689 C384.96782865 276.52856189 385.70036844 276.5294869 386.45510641 276.53043994 C403.88776278 276.55242476 421.32042135 276.572218 438.75308156 276.59089029 C439.51571139 276.59170997 440.27834121 276.59252965 441.06408103 276.59337416 C458.85115963 276.6124527 476.63823812 276.62941591 494.42532277 276.64173257 C495.19000107 276.64226224 495.95467937 276.64279191 496.74252974 276.64333763 C502.90616395 276.64758923 509.06979821 276.65176552 515.23343248 276.65592243 C540.66628021 276.67313381 566.09910077 276.70036282 591.53192517 276.7390828 C595.12637477 276.74454424 598.72082456 276.74987727 602.31527448 276.75512445 C603.37633375 276.75667602 603.37633375 276.75667602 604.45882856 276.75825894 C615.82542884 276.77455853 627.19201004 276.78011111 638.5586209 276.78142211 C649.99076974 276.7829293 661.42285336 276.79535564 672.85498226 276.81817852 C679.04411323 276.83019235 685.23315 276.83736889 691.42229199 276.83146608 C697.09437854 276.82615334 702.76627326 276.83470568 708.43832784 276.85402246 C710.48409751 276.85858021 712.52988605 276.85815206 714.57565177 276.85207407 C739.03293045 276.78592882 761.10446611 281.47562289 779.49160695 298.95221841 C780.25215383 299.71147623 781.0127007 300.47073404 781.79629445 301.25299966 C782.49496633 301.94006998 783.1936382 302.62714029 783.91348195 303.33503091 C801.37634198 321.64725183 805.53858826 345.65324795 805.0423882 370.06940591 C804.33390701 389.13495194 798.43737869 405.17717856 786.79629445 420.25299966 C786.23168508 421.00194498 785.6670757 421.75089029 785.08535695 422.52253091 C778.39191128 430.79954788 769.44965185 436.66720275 760.10879445 441.56549966 C759.5352422 441.87874185 758.96168996 442.19198404 758.37075734 442.51471841 C741.84581666 450.74093539 723.51036269 449.82927572 705.57341552 449.757828 C701.62767282 449.74659423 697.68198933 449.75874748 693.73625112 449.76801431 C686.91248691 449.78104095 680.0888455 449.77998507 673.26507878 449.76942003 C663.36997672 449.75438748 653.47501664 449.76446554 643.57992254 449.78093921 C627.4824463 449.80734342 611.38500212 449.81826144 595.28750539 449.81720865 C594.32627027 449.81715033 593.36503514 449.817092 592.37467168 449.81703191 C588.48131256 449.81676613 584.58795344 449.81644888 580.69459433 449.81606865 C569.99932727 449.81510384 559.30406118 449.8164286 548.60879445 449.81916177 C547.1732714 449.81952161 547.1732714 449.81952161 545.70874788 449.81988872 C529.67883775 449.82431484 513.64895714 449.84062632 497.61906445 449.86438257 C487.76561326 449.87835453 477.91227541 449.88142272 468.05882053 449.86975967 C461.28972157 449.86236538 454.52067919 449.86559593 447.75158556 449.87671811 C443.86360413 449.88271392 439.975782 449.8840941 436.08781171 449.87184083 C368.64433049 449.67295352 309.22439907 468.13732099 259.79629445 515.25299966 C258.9970757 516.01096841 258.19785695 516.76893716 257.37441945 517.54987466 C217.19393919 556.62192788 193.63800493 615.89878377 192.70060086 671.54882562 C192.64749427 676.57857078 192.64945552 681.60828457 192.65103078 686.63825357 C192.64803291 688.56318607 192.64462895 690.48811797 192.64085317 692.4130491 C192.63207686 697.60500428 192.62967787 702.79694295 192.62903738 707.98890483 C192.62832372 711.23858342 192.62618353 714.48825787 192.62354016 717.73793542 C192.61431073 729.09094129 192.61020262 740.44393548 192.61099172 751.79694498 C192.61159319 762.35626275 192.60102162 772.91552956 192.58524805 783.47483444 C192.57215505 792.56564153 192.5668085 801.65643197 192.56744713 810.74724841 C192.56770142 816.16609079 192.5648878 821.58488772 192.55426908 827.00372064 C192.54455737 832.0976905 192.54452993 837.19157169 192.55178571 842.28554475 C192.55282744 844.14827801 192.55049325 846.01101689 192.54442525 847.87374055 C191.97638791 865.28922612 191.97638791 865.28922612 197.79629445 881.25299966 C206.72211966 889.9804732 217.84256004 889.40380056 229.57278848 889.38163412 C230.74876663 889.38338715 231.92474479 889.38514019 233.13635865 889.38694635 C236.39727765 889.39079361 239.6581604 889.39017929 242.91907957 889.38766858 C246.46803051 889.38603261 250.01697554 889.39017874 253.56592458 889.39357775 C259.78497101 889.39872845 266.00400964 889.40014953 272.22305799 889.39912164 C281.47113327 889.39759685 290.71919995 889.40175816 299.96727356 889.40699627 C317.44512922 889.4166691 334.92298194 889.41948048 352.40083996 889.42005333 C365.89693361 889.42051278 379.39302611 889.42257065 392.88911939 889.42575395 C396.77323514 889.42665149 400.6573509 889.4275413 404.54146665 889.42842883 C405.50705261 889.42864988 406.47263856 889.42887092 407.4674847 889.42909867 C434.62877349 889.43525314 461.79006188 889.4391992 488.9513514 889.43875539 C489.97546803 889.43873981 490.99958466 889.43872424 492.05473513 889.43870818 C497.24544958 889.43862508 502.43616403 889.43852604 507.62687848 889.43842348 C508.65778378 889.43840353 509.68868908 889.43838359 510.75083393 889.43836304 C512.83557534 889.4383226 514.92031676 889.4382808 517.00505817 889.43823765 C549.44483347 889.4376248 581.88459831 889.44513297 614.32437062 889.45881021 C650.76519681 889.47416802 687.20601613 889.48277663 723.64684576 889.48184699 C727.53190458 889.48177236 731.4169634 889.48172365 735.30202222 889.48169267 C736.25863185 889.48168102 737.21524147 889.48166936 738.20083927 889.48165736 C753.59998707 889.48162657 768.9991258 889.48801437 784.3982709 889.49662494 C799.87203475 889.50509834 815.34578531 889.50609381 830.81955019 889.49951562 C840.01326103 889.49581798 849.20693156 889.49765871 858.40063814 889.50745796 C864.54266438 889.51345165 870.68466138 889.51216928 876.82668627 889.50498746 C880.3255907 889.50110083 883.82441704 889.50034505 887.32331602 889.50844481 C891.09637483 889.51548951 894.8692253 889.51022304 898.642277 889.50188863 C900.26321819 889.5093409 900.26321819 889.5093409 901.91690567 889.51694372 C910.61252383 889.47628419 920.3521603 889.21575577 927.79629445 884.25299966 C935.65348611 876.21723547 935.94817017 866.55199672 935.94155812 855.90021646 C935.94491673 855.10717111 935.94827535 854.31412576 935.95173573 853.49704874 C935.96116447 850.89875563 935.96318474 848.30052752 935.9642632 845.70221841 C935.96748136 843.87912347 935.97084584 842.05602878 935.97434926 840.23293436 C935.98032032 836.41938559 935.98219124 832.60585941 935.98159719 828.7923063 C935.98149567 823.93064922 935.99514584 819.06913852 936.01236939 814.20751607 C936.0235443 810.44375332 936.02551471 806.68002536 936.02498746 802.91624773 C936.02615939 801.12508328 936.0305364 799.3339177 936.03831983 797.54276979 C936.64467222 778.24219281 936.64467222 778.24219281 928.35879445 761.56549966 C914.81592991 751.29274144 888.67321395 755.09942165 872.5325768 755.08373392 C870.21229172 755.07789076 867.89200769 755.07161524 865.57172483 755.06494826 C860.55459178 755.05145586 855.5374648 755.04098368 850.52032018 755.03287637 C843.05986683 755.02081339 835.59943483 755.00341619 828.13899586 754.98459213 C816.35134583 754.95492148 804.5636915 754.9283776 792.77602957 754.90392714 C774.07610999 754.86505478 755.37622689 754.8160486 736.67634081 754.76364163 C732.69105851 754.75248708 728.70577594 754.74142916 724.72049338 754.73036677 C723.52908737 754.72705877 723.52908737 754.72705877 722.31361256 754.72368394 C720.70424363 754.71921553 719.09487469 754.7147477 717.48550576 754.71028043 C715.8703207 754.70579545 714.25513565 754.70130748 712.63995061 754.69681654 C693.62183816 754.64393921 674.60372168 754.59265731 655.58560109 754.54279459 C654.7540828 754.54061082 653.92256452 754.53842706 653.06584871 754.53617712 C626.06040186 754.46533255 599.0549418 754.4050125 572.04946037 754.34909277 C544.26259631 754.29147945 516.47579363 754.22063527 488.68900402 754.13409541 C484.76784541 754.12189544 480.84668631 754.10986078 476.92552686 754.09793413 C476.15385763 754.09558402 475.38218841 754.09323391 474.58713527 754.09081259 C462.16204477 754.05338965 449.73696624 754.03018095 437.3118337 754.01245191 C424.83799503 753.99439179 412.36425924 753.96211704 399.89049528 753.91515239 C393.13128536 753.89011426 386.37222918 753.8720919 379.61296773 753.87111413 C373.43092449 753.87008874 367.24921979 753.85088063 361.06727209 753.81694356 C358.82611741 753.80790593 356.58492334 753.80566784 354.34375624 753.81076326 C351.30637306 753.81670038 348.27008874 753.79829596 345.23282266 753.77363241 C344.3550107 753.78121762 343.47719874 753.78880283 342.57278642 753.7966179 C337.1807232 753.71957483 334.05363306 752.87178117 329.79629445 749.25299966 C327.24868046 745.43157868 327.5080166 742.33365402 327.52163625 737.90461099 C327.51652532 737.05205225 327.51141438 736.1994935 327.50614858 735.32109964 C327.49221317 732.49233916 327.49321445 729.66382174 327.4955132 726.83503091 C327.4916241 724.85982553 327.48728898 722.88462098 327.48252797 720.90941751 C327.47505415 716.75739726 327.47536228 712.60546198 327.48062062 708.45343912 C327.48637052 703.17391915 327.4695994 697.89475515 327.44627595 692.61529386 C327.43141051 688.52704261 327.43068495 684.4388741 327.43378568 680.3506006 C327.43327733 678.40726593 327.42813266 676.46392602 327.41797376 674.52061784 C327.29557245 647.79448213 332.92162565 624.64867024 352.0736382 604.90534341 C367.95553132 589.89862755 386.47860049 582.92433188 408.02169728 582.99471414 C409.33608021 582.99103844 410.65046315 582.98736273 412.00467587 582.98357564 C415.63389538 582.97364143 419.2630177 582.97595574 422.89224434 582.98030257 C426.8149793 582.98278777 430.73768929 582.97369823 434.66041493 582.96592081 C441.45699681 582.95389166 448.25355527 582.94876862 455.05014729 582.94803941 C464.9083577 582.94670952 474.76651174 582.93155816 484.62470219 582.91254424 C500.6621986 582.88171088 516.69969645 582.85754765 532.73721242 582.83966959 C533.6964657 582.8385969 534.65571899 582.83752422 535.64404055 582.83641904 C546.3200144 582.82462627 556.99598882 582.81441862 567.67196584 582.80597818 C571.53062878 582.80290477 575.3892917 582.79981585 579.24795461 582.79670084 C580.67597315 582.79555283 580.67597315 582.79555283 582.13284054 582.79438163 C598.08793409 582.7812348 614.04298717 582.75650036 629.99805069 582.72295743 C639.81102806 582.7028153 649.62391843 582.69235741 659.43691662 582.69494664 C666.18649354 582.69599308 672.93600233 582.68616551 679.68555543 582.66830761 C683.56156837 582.65840369 687.43743041 582.65297779 691.31345105 582.661075 C750.89479674 582.77315789 806.52914775 570.33938804 853.79629445 532.25299966 C854.39103566 531.77395181 854.98577687 531.29490396 855.59854054 530.80133951 C869.96174787 519.10575459 882.80219694 506.16361252 893.79629445 491.25299966 C894.22249074 490.68758462 894.64868703 490.12216959 895.08779836 489.53962076 C901.41525007 481.14371718 906.83861504 472.43207091 911.78213429 463.15534341 C912.70710514 461.4202994 913.65110211 459.69543257 914.5970757 457.97174966 C927.6211606 433.30083943 934.84615361 405.88787668 937.79629445 378.25299966 C937.87750539 377.5312858 937.95871633 376.80957193 938.0423882 376.06598794 C943.45445366 325.25666284 922.89754592 269.03085473 891.48477101 229.60700357 C888.34674923 225.74120829 885.10030122 221.97741474 881.79629445 218.25299966 C881.05693654 217.41889566 881.05693654 217.41889566 880.30264211 216.56794107 C864.20922886 198.52820316 845.7170858 184.29035162 824.79629445 172.25299966 C824.17609426 171.88867837 823.55589406 171.52435709 822.91689992 171.14899576 C779.99821774 146.07092838 730.44664468 142.07527279 681.88816762 142.11928689 C679.88474102 142.1174125 677.88131478 142.11510934 675.8778891 142.11242157 C670.44186716 142.10637575 665.00586077 142.10642848 659.56983626 142.10761595 C653.68106624 142.10782178 647.79230097 142.10228432 641.90353322 142.09755838 C630.39784529 142.08929357 618.89216249 142.08650553 607.38647185 142.085946 C598.03545032 142.08546933 588.68443053 142.08341754 579.33340955 142.08024538 C576.632541 142.07934774 573.93167246 142.07845792 571.23080391 142.0775705 C570.55922399 142.07734945 569.88764408 142.0771284 569.19571326 142.07690066 C550.34154167 142.0707583 531.48737065 142.06679895 512.63319802 142.06724393 C511.56971039 142.0672673 511.56971039 142.0672673 510.48473817 142.06729114 C506.89197064 142.06737424 503.29920312 142.06747328 499.7064356 142.06757585 C498.99300039 142.06759579 498.27956518 142.06761574 497.54451072 142.06763629 C496.10178143 142.06767673 494.65905214 142.06771852 493.21632285 142.06776168 C470.73670732 142.06837533 448.25710684 142.06084645 425.77749562 142.04718912 C400.47814139 142.0318247 375.17879705 142.0232229 349.87943786 142.02415234 C347.18202722 142.02422696 344.48461658 142.02427567 341.78720593 142.02430665 C341.12310891 142.02431831 340.45901189 142.02432996 339.77479072 142.02434197 C329.76202854 142.0243708 319.74927875 142.01902997 309.73652005 142.01097429 C298.35617584 142.00187624 286.97585637 141.99968873 275.5955101 142.00648371 C269.79158844 142.00975097 263.98771428 142.00979783 258.18379712 142.00113046 C252.86903882 141.99327501 247.55436576 141.99468712 242.23960956 142.00341459 C240.31949157 142.00495154 238.39936725 142.00312609 236.47925673 141.99755452 C216.73360083 141.2512309 216.73360083 141.2512309 200.04629445 150.06549966 Z M1349.38223195 221.51081216 C1345.25318602 225.88934728 1341.50706965 230.51900896 1337.79629445 235.25299966 C1337.00609914 236.22624185 1336.21590383 237.19948404 1335.4017632 238.20221841 C1328.34919118 247.05402928 1322.41631918 256.43663736 1316.79629445 266.25299966 C1316.33577687 267.05737466 1315.87525929 267.86174966 1315.40078664 268.69049966 C1290.95041751 312.0055194 1283.63964919 358.81635785 1283.65103078 407.89533365 C1283.64803452 410.48073758 1283.64463092 413.06614107 1283.64085317 415.65154397 C1283.63259484 421.91919371 1283.62980049 428.18683403 1283.62924079 434.45448875 C1283.62876319 439.55836347 1283.62669637 444.66223512 1283.62354016 449.76610887 C1283.61474563 464.28666866 1283.61011874 478.8072211 1283.61087064 493.32778358 C1283.61091059 494.10836612 1283.61095055 494.88894865 1283.61099172 495.69318521 C1283.6110326 496.47473858 1283.61107348 497.25629195 1283.6111156 498.06152875 C1283.61152141 510.70657233 1283.60196509 523.35158605 1283.58785335 535.99662101 C1283.57342532 549.02961041 1283.56658672 562.06258532 1283.56744713 575.0955829 C1283.56777696 582.39273697 1283.565125 589.68985975 1283.55426908 596.98700655 C1283.54410902 603.85964087 1283.54456445 610.73220862 1283.55178571 617.60484636 C1283.55282155 620.10917512 1283.55052917 622.61350814 1283.54442525 625.11782968 C1283.50053215 644.39452753 1284.02200074 663.74510854 1287.54629445 682.75299966 C1287.7154839 683.68547525 1287.88467336 684.61795084 1288.05898976 685.57868326 C1295.66254951 725.91266404 1312.26060249 764.70187373 1338.79629445 796.25299966 C1339.74957986 797.41041964 1340.70270179 798.56797429 1341.65566945 799.72565591 C1351.93339171 812.08013497 1363.08747673 823.390522 1375.79629445 833.25299966 C1376.73086476 834.01612466 1377.66543508 834.77924966 1378.6283257 835.56549966 C1392.9957129 847.07416412 1409.03704242 856.65840178 1425.79629445 864.25299966 C1426.89723439 864.75307535 1426.89723439 864.75307535 1428.02041554 865.26325357 C1465.03112748 881.87092405 1503.49815621 887.40879397 1543.77651906 887.39826334 C1546.0762124 887.40126051 1548.37590524 887.40466431 1550.67559743 887.40844095 C1556.88892717 887.41723013 1563.10224311 887.41961696 1569.31557846 887.42025673 C1573.20909556 887.42097033 1577.10260922 887.42311053 1580.99612546 887.42575395 C1593.91189766 887.43451628 1606.82766017 887.43917575 1619.7434352 887.43842348 C1620.7843747 887.43836354 1620.7843747 887.43836354 1621.84634328 887.4383024 C1622.54116882 887.43826152 1623.23599436 887.43822064 1623.95187522 887.43817852 C1635.19045091 887.43777282 1646.42899298 887.4473269 1657.66755896 887.46144076 C1669.25865333 887.47588025 1680.84972986 887.48252456 1692.44083339 887.48184699 C1698.92756531 887.48159365 1705.41425916 887.48435301 1711.9009831 887.49502504 C1718.01194002 887.50480522 1724.12282327 887.50471824 1730.23378301 887.49750841 C1732.45752692 887.49647464 1734.68127567 887.4987521 1736.90501142 887.50486887 C1774.02109709 887.6002262 1809.22886001 882.06135543 1843.79629445 868.25299966 C1844.46789601 867.98938638 1845.13949758 867.7257731 1845.8314507 867.45417154 C1882.61114098 852.86660054 1916.46441006 826.29419947 1940.79629445 795.25299966 C1941.58648976 794.27975748 1942.37668508 793.30651529 1943.1908257 792.30378091 C1968.44900374 760.60178422 1983.83839528 722.40157164 1991.04629445 682.75299966 C1991.1975176 681.93758707 1991.34874074 681.12217447 1991.5045464 680.2820524 C1994.78397898 660.8628489 1995.09026267 641.22748861 1995.05508351 621.58893716 C1995.05780137 619.00220521 1995.06136671 616.41547404 1995.06570363 613.82874429 C1995.07449985 607.59239336 1995.07271993 601.35609113 1995.06687835 595.11973846 C1995.06232277 590.04182007 1995.06176557 584.96391513 1995.06392598 579.88599527 C1995.06423245 579.15750607 1995.06453891 578.42901688 1995.06485467 577.67845225 C1995.06549425 576.19757735 1995.06614268 574.71670246 1995.06679985 573.23582757 C1995.07247451 559.41752076 1995.06599057 545.59924069 1995.05519912 531.78093827 C1995.04626623 519.97799225 1995.04781909 508.1750856 1995.05703664 496.37214029 C1995.06779028 482.59621476 1995.07192546 468.82031254 1995.06581211 455.04438341 C1995.06517515 453.56959029 1995.06454641 452.09479718 1995.06392598 450.62000406 C1995.06361743 449.89477182 1995.06330888 449.16953959 1995.06299098 448.42233062 C1995.06127924 443.36284976 1995.06414589 438.30338395 1995.06888509 433.24390543 C1995.07514874 426.40808056 1995.07055752 419.57233031 1995.05909657 412.73651254 C1995.05648054 410.24669139 1995.05716181 407.75686391 1995.0616219 405.26704538 C1995.09286609 386.03323532 1994.56348012 366.71806954 1991.04629445 347.75299966 C1990.8763799 346.81834878 1990.70646535 345.88369791 1990.53140187 344.92072427 C1983.0504687 305.29065463 1967.17790928 266.93981636 1941.11709523 235.83405435 C1939.80311743 234.26116706 1938.51514296 232.66971323 1937.2298882 231.07331216 C1926.78076514 218.24243255 1914.99391806 206.25231337 1901.79629445 196.25299966 C1901.26810109 195.84307779 1900.73990773 195.43315591 1900.19570851 195.01081216 C1863.68872822 166.72574778 1820.22102722 149.8764993 1774.48379445 144.56549966 C1773.46640187 144.44593912 1772.44900929 144.32637857 1771.40078664 144.20319498 C1746.52846558 141.54737611 1721.41572778 142.10301853 1696.44162869 142.11867416 C1691.05395006 142.12124031 1685.66627297 142.11884855 1680.27859426 142.11728799 C1671.23810444 142.11547855 1662.19762285 142.11784023 1653.15713429 142.12262857 C1642.76713631 142.1280688 1632.37715796 142.12630528 1621.98716044 142.12080216 C1612.99957337 142.1162359 1604.01199215 142.11563755 1595.02440429 142.11824083 C1589.68582677 142.11978441 1584.34725843 142.12005096 1579.00868154 142.11670434 C1490.24145622 142.06865013 1414.14585848 156.00490911 1349.38223195 221.51081216 Z M1050.04629445 769.06549966 C1044.69107467 776.65206103 1044.64545567 785.62446261 1044.65103078 794.60578287 C1044.64767217 795.39882822 1044.64431355 796.19187356 1044.64085317 797.00895059 C1044.63142443 799.6072437 1044.62940416 802.20547181 1044.6283257 804.80378091 C1044.62510754 806.62687586 1044.62174306 808.44997055 1044.61823964 810.27306497 C1044.61226858 814.08661374 1044.61039766 817.90013991 1044.61099172 821.71369302 C1044.61109323 826.57535011 1044.59744306 831.4368608 1044.58021951 836.29848325 C1044.5690446 840.062246 1044.56707419 843.82597397 1044.56760144 847.5897516 C1044.56642951 849.38091604 1044.5620525 851.17208162 1044.55426908 852.96322954 C1043.98367209 870.33286506 1043.98367209 870.33286506 1049.79629445 886.25299966 C1057.83205864 894.11019132 1067.4972974 894.40487538 1078.14907765 894.39826334 C1078.942123 894.40162195 1079.73516835 894.40498056 1080.55224538 894.40844095 C1083.15053848 894.41786969 1085.74876659 894.41988996 1088.3470757 894.42096841 C1090.17017065 894.42418657 1091.99326534 894.42755106 1093.81635976 894.43105447 C1097.62990853 894.43702554 1101.4434347 894.43889645 1105.25698781 894.4383024 C1110.1186449 894.43820088 1114.98015559 894.45185106 1119.84177804 894.46907461 C1123.60554079 894.48024951 1127.36926875 894.48221993 1131.13304639 894.48169267 C1132.92421083 894.4828646 1134.71537641 894.48724161 1136.50652432 894.49502504 C1153.87615985 895.06562202 1153.87615985 895.06562202 1169.79629445 889.25299966 C1177.65348611 881.21723547 1177.94817017 871.55199672 1177.94155812 860.90021646 C1177.94491673 860.10717111 1177.94827535 859.31412576 1177.95173573 858.49704874 C1177.96116447 855.89875563 1177.96318474 853.30052752 1177.9642632 850.70221841 C1177.96748136 848.87912347 1177.97084584 847.05602878 1177.97434926 845.23293436 C1177.98032032 841.41938559 1177.98219124 837.60585941 1177.98159719 833.7923063 C1177.98149567 828.93064922 1177.99514584 824.06913852 1178.01236939 819.20751607 C1178.0235443 815.44375332 1178.02551471 811.68002536 1178.02498746 807.91624773 C1178.02615939 806.12508328 1178.0305364 804.3339177 1178.03831983 802.54276979 C1178.60891681 785.17313426 1178.60891681 785.17313426 1172.79629445 769.25299966 C1164.76053026 761.39580801 1155.0952915 761.10112395 1144.44351125 761.10773599 C1143.6504659 761.10437738 1142.85742055 761.10101877 1142.04034352 761.09755838 C1139.44205042 761.08812964 1136.84382231 761.08610937 1134.2455132 761.08503091 C1132.42241826 761.08181276 1130.59932356 761.07844827 1128.77622914 761.07494485 C1124.96268037 761.06897379 1121.1491542 761.06710287 1117.33560109 761.06769693 C1112.473944 761.06779844 1107.61243331 761.05414827 1102.75081086 761.03692472 C1098.98704811 761.02574981 1095.22332015 761.0237794 1091.45954251 761.02430665 C1089.66837807 761.02313473 1087.87721249 761.01875772 1086.08606458 761.01097429 C1066.5452815 760.29281609 1066.5452815 760.29281609 1050.04629445 769.06549966 Z " fill="#FFFFFF" transform="translate(5553.20370554924,15.747000336647034)"/>
<path d="M0 0 C7.86568807 4.4946789 7.86568807 4.4946789 10.40234375 6.59375 C10.97380127 7.06022949 11.54525879 7.52670898 12.1340332 8.00732422 C12.72917725 8.49990723 13.32432129 8.99249023 13.9375 9.5 C19.14811619 13.7411538 24.4187662 17.86926085 29.8125 21.875 C37.95379816 27.92996548 45.9527194 34.15981353 53.95019531 40.40283203 C62.48575069 47.05357087 71.09731874 53.6066392 79.69458008 60.17724609 C86.14034012 65.10443247 92.57194032 70.04974801 99 75 C101.16644651 76.66695292 103.33322497 78.33347413 105.5 80 C106.58333938 80.83332547 107.66667272 81.6666588 108.75 82.5 C109.28625 82.9125 109.8225 83.325 110.375 83.75 C128.25 97.5 128.25 97.5 129.87402344 98.74926758 C130.96058779 99.58507376 132.04717645 100.42084835 133.13378906 101.2565918 C135.79288548 103.30183636 138.4514994 105.34769991 141.109375 107.39453125 C147.23103457 112.1076 153.36160412 116.80874598 159.5 121.5 C166.67781092 126.98562442 173.84245047 132.48796751 181 138 C183.16644651 139.66695292 185.33322497 141.33347413 187.5 143 C188.58333938 143.83332547 189.66667272 144.6666588 190.75 145.5 C191.28625 145.9125 191.8225 146.325 192.375 146.75 C314.25 240.5 314.25 240.5 315.87402344 241.74926758 C316.96058779 242.58507376 318.04717645 243.42084835 319.13378906 244.2565918 C321.79288548 246.30183636 324.4514994 248.34769991 327.109375 250.39453125 C333.23103457 255.1076 339.36160412 259.80874598 345.5 264.5 C352.67781092 269.98562442 359.84245047 275.48796751 367 281 C369.16644651 282.66695292 371.33322497 284.33347413 373.5 286 C374.58333938 286.83332547 375.66667272 287.6666588 376.75 288.5 C377.28625 288.9125 377.8225 289.325 378.375 289.75 C437.6875 335.375 437.6875 335.375 497 381 C504.48087346 376.30961108 511.31134333 370.8961618 518.21240234 365.41259766 C520.97615687 363.2286201 523.76729861 361.08099688 526.5625 358.9375 C527.09456055 358.52918945 527.62662109 358.12087891 528.17480469 357.70019531 C529.24674284 356.87787769 530.31884524 356.05577414 531.39111328 355.23388672 C534.09649812 353.15907413 536.79804166 351.07927147 539.5 349 C540.58331518 348.16664307 541.66664851 347.33330973 542.75 346.5 C543.28625 346.0875 543.8225 345.675 544.375 345.25 C554.66666667 337.33333333 564.95833333 329.41666667 575.25 321.5 C575.78592773 321.0877417 576.32185547 320.6754834 576.87402344 320.25073242 C577.96058779 319.41492624 579.04717645 318.57915165 580.13378906 317.7434082 C582.79288548 315.69816364 585.4514994 313.65230009 588.109375 311.60546875 C594.96016824 306.33103962 601.82383909 301.07374453 608.69335938 295.82373047 C615.13947094 290.89614609 621.57152742 285.95056996 628 281 C630.16644651 279.33304708 632.33322497 277.66652587 634.5 276 C635.58333938 275.16667453 636.66667272 274.3333412 637.75 273.5 C691.375 232.25 745 191 800.25 148.5 C800.78592773 148.0877417 801.32185547 147.6754834 801.87402344 147.25073242 C802.96058779 146.41492624 804.04717645 145.57915165 805.13378906 144.7434082 C807.79288548 142.69816364 810.4514994 140.65230009 813.109375 138.60546875 C819.96016824 133.33103962 826.82383909 128.07374453 833.69335938 122.82373047 C840.13947094 117.89614609 846.57152742 112.95056996 853 108 C854.62168554 106.75220854 856.24355703 105.5046622 857.8659668 104.2578125 C858.95472663 103.41972933 860.04213331 102.5798853 861.12817383 101.73828125 C863.79664627 99.67371149 866.47985048 97.65308501 869.21484375 95.67578125 C877.00685911 89.96163665 883.36876465 83.55528958 889.859375 76.41015625 C893.32724395 72.60348429 897.0257473 69.26722273 901 66 C901.91523437 65.19691406 902.83046875 64.39382812 903.7734375 63.56640625 C943.20253313 29.05970879 993.13680061 7.49913364 1045 1 C1046.30398932 0.8271454 1047.60797863 0.65429081 1048.95148277 0.4761982 C1054.9065857 -0.17614651 1060.84235194 -0.1382948 1066.82705688 -0.12698364 C1068.7426952 -0.12932602 1068.7426952 -0.12932602 1070.69703329 -0.13171571 C1074.23618303 -0.1358851 1077.77530568 -0.13383423 1081.31445551 -0.13073178 C1085.16580025 -0.1284433 1089.01714062 -0.13192293 1092.8684845 -0.13462734 C1100.49970859 -0.1390447 1108.13092298 -0.13799022 1115.76214744 -0.13515103 C1122.09933034 -0.13293061 1128.43651 -0.13293025 1134.77369308 -0.13438225 C1136.14509002 -0.1346948 1136.14509002 -0.1346948 1137.54419195 -0.13501366 C1139.40857606 -0.13544699 1141.27296017 -0.13588421 1143.13734429 -0.13632525 C1162.03156224 -0.14049019 1180.92577441 -0.13700939 1199.81999147 -0.13081557 C1201.90349285 -0.13013322 1203.98699423 -0.12945227 1206.07049561 -0.12877274 C1207.10520761 -0.12843498 1208.13991962 -0.12809722 1209.20598654 -0.12774923 C1219.6526656 -0.1244604 1230.09934471 -0.12303782 1240.54602417 -0.1217161 C1346.22859113 -0.10798302 1451.91087773 -0.00037798 1613.44037286 0.41408278 C1620.05102966 0.43226486 1626.66168763 0.44995733 1633.2723465 0.46736908 C1684.1817445 0.60155623 1735.09098358 0.75860994 1786 1 C1787.15791109 1.00548243 1787.15791109 1.00548243 1788.33921432 1.01107562 C1809.08346332 1.10966875 1829.82751408 1.22715224 1850.5715059 1.36998942 C1855.18687512 1.40141098 1859.80225598 1.42854256 1864.41766357 1.45385551 C1960.89280228 1.99506379 2051.04796775 15.77955266 2217 117 C2217.52674316 117.44037598 2218.05348633 117.88075195 2218.59619141 118.33447266 C2231.62916115 129.26817211 2243.94821044 140.8722062 2256 152.875 C2257.18372192 154.05171265 2257.18372192 154.05171265 2258.39135742 155.25219727 C2263.13315462 160.0071031 2267.63401342 164.89964858 2272 170 C2272.9494375 171.08298196 2273.8999066 172.16506067 2274.8515625 173.24609375 C2282.65208425 182.18978343 2289.89857479 191.49511811 2297 201 C2297.48887695 201.65145996 2297.97775391 202.30291992 2298.48144531 202.97412109 C2350.72177072 272.71691407 2382.6944322 355.38375062 2395.39453125 477.76953125 C2395.4601599 480.21479223 2395.52693347 482.66002268 2395.59472656 485.10522461 C2395.64699402 486.99505569 2395.64699402 486.99505569 2395.70031738 488.92306519 C2396.33186499 510.81917803 2397.0307648 532.41789312 2401 554 C2401.29318115 555.64911377 2401.29318115 555.64911377 2401.59228516 557.33154297 C2411.07701559 609.04931457 2434.46559091 658.57240681 2468 699 C2468.81984375 699.99386719 2469.6396875 700.98773437 2470.484375 702.01171875 C2483.37331555 717.51687163 2483.37331555 717.51687163 2498.01171875 731.3203125 C2500.40192876 733.33954689 2502.65599942 735.48374158 2504.9375 737.625 C2566.50402363 793.59456694 2651.02189899 819.44736179 2733.22167969 815.859375 C2803.45903821 811.82089898 2871.41273591 783.6366 2924 737 C2924.9796875 736.13117187 2925.959375 735.26234375 2926.96875 734.3671875 C2937.58607838 724.78365162 2948.02669252 714.91741078 2956.88671875 703.66015625 C2958.28274539 701.90286578 2959.72301127 700.17973412 2961.20703125 698.49609375 C3001.76681779 652.2861877 3024.58273431 589.46788981 3031 529 C3031.0889829 528.20391162 3031.1779658 527.40782323 3031.26964515 526.58761096 C3032.27156174 516.39565303 3032.15358129 506.19706283 3032.15821838 495.96759033 C3032.1627896 493.82883575 3032.16779044 491.69008205 3032.17318195 489.55132937 C3032.18670873 483.69523144 3032.19416553 477.83913928 3032.20060861 471.98302984 C3032.20863665 465.66006643 3032.22232611 459.33711495 3032.23532104 453.01416016 C3032.25704977 442.06615797 3032.2752416 431.11815546 3032.29092598 420.17014313 C3032.30738482 408.6919433 3032.32587501 397.21374968 3032.34705925 385.73555756 C3032.34903566 384.66376246 3032.34903566 384.66376246 3032.351052 383.57031494 C3032.35775438 379.94135922 3032.36449287 376.31240356 3032.37124526 372.68344793 C3032.41896784 347.00088538 3032.46216445 321.31831702 3032.50268555 295.63574219 C3032.54205382 270.69042539 3032.58348078 245.7451134 3032.62768555 220.79980469 C3032.62904808 220.03045015 3032.63041061 219.26109561 3032.63181442 218.4684273 C3032.64550017 210.74202831 3032.65922768 203.0156294 3032.67298577 195.28923053 C3032.70100991 179.55062921 3032.72875544 163.8120274 3032.7563324 148.07342529 C3032.7582347 146.98804809 3032.7582347 146.98804809 3032.76017542 145.88074407 C3032.79902087 123.70868563 3032.83668574 101.53662541 3032.8731842 79.36456299 C3032.87522893 78.12272471 3032.87727365 76.88088642 3032.87938034 75.60141668 C3032.92025321 50.73427886 3032.95997806 25.86713919 3033 1 C3091.74 1 3150.48 1 3211 1 C3211.06021772 61.66487089 3211.06021772 61.66487089 3211.07695007 80.68115234 C3211.07783807 81.68902898 3211.07783807 81.68902898 3211.07874402 82.71726677 C3211.09864336 105.36440629 3211.11438523 128.01154672 3211.12702942 150.65869141 C3211.12744359 151.398615 3211.12785776 152.1385386 3211.12828448 152.90088412 C3211.13726603 168.98663848 3211.14557617 185.07239311 3211.15319599 201.15814817 C3211.15693756 209.04814051 3211.16082728 216.93813277 3211.16479492 224.828125 C3211.1651872 225.61321765 3211.16557948 226.3983103 3211.16598364 227.20719364 C3211.17873688 252.59248687 3211.20124761 277.97775988 3211.22889166 303.36304089 C3211.2572795 329.47915303 3211.27567711 355.59525402 3211.28174497 381.71138132 C3211.28260926 385.41153045 3211.28358617 389.11167954 3211.28463173 392.81182861 C3211.284834 393.53997453 3211.28503627 394.26812045 3211.28524467 395.01833139 C3211.28877123 406.67585469 3211.30263467 418.3333432 3211.3204961 429.99085239 C3211.33828649 441.74911152 3211.34463159 453.50733362 3211.34050413 465.26560569 C3211.3385966 471.62084596 3211.34136688 477.97598529 3211.35761642 484.33120728 C3211.42016503 510.0595503 3211.2495139 535.44585568 3208 561 C3207.89040368 561.88990002 3207.78080737 562.77980003 3207.66788995 563.69666672 C3207.11361739 568.16834982 3206.47902468 572.61595311 3205.75 577.0625 C3205.54020508 578.36300293 3205.33041016 579.66350586 3205.11425781 581.00341797 C3197.91393309 624.63935851 3184.45243509 666.85528247 3166 707 C3165.25350244 708.65737026 3164.50738555 710.31491205 3163.76171875 711.97265625 C3157.94102425 724.74687868 3151.06310812 736.87857771 3144 749 C3143.4956543 749.87333984 3142.99130859 750.74667969 3142.47167969 751.64648438 C3129.04962879 774.84049708 3113.23547887 796.4941995 3096 817 C3095.56929199 817.515625 3095.13858398 818.03125 3094.69482422 818.5625 C3080.33283172 835.72202044 3064.99397162 852.96118883 3047.86328125 867.4140625 C3045.64528815 869.30191407 3043.51757845 871.27702792 3041.375 873.25 C3035.79679748 878.27716428 3029.92562668 882.86811216 3023.98632812 887.45507812 C3021.8902122 889.08539051 3019.81141829 890.73609456 3017.734375 892.390625 C3007.5040375 900.50694027 2997.00743664 907.97633644 2986 915 C2985.18160645 915.5244873 2984.36321289 916.04897461 2983.52001953 916.58935547 C2970.33348075 925.00376751 2956.84666357 932.72744139 2943 940 C2942.07944824 940.48823242 2941.15889648 940.97646484 2940.21044922 941.47949219 C2883.35655753 971.47335541 2820.72529626 987.69704841 2757 994 C2755.95569824 994.10602539 2754.91139648 994.21205078 2753.83544922 994.32128906 C2670.35198386 1001.55591768 2583.9576568 986.00701877 2508 951 C2506.99372559 950.53867676 2505.98745117 950.07735352 2504.95068359 949.60205078 C2482.68992655 939.33561075 2461.48466468 927.45883689 2441 914 C2440.32984863 913.56010742 2439.65969727 913.12021484 2438.96923828 912.66699219 C2419.36456376 899.70111801 2400.87140031 885.09815325 2383.51171875 869.265625 C2382.15745291 868.04404772 2380.79718853 866.82835686 2379.4050293 865.65014648 C2373.02900882 860.2197187 2367.15285664 854.30411079 2361.24536133 848.37573242 C2359.44137915 846.56639067 2357.63211335 844.76245681 2355.82226562 842.95898438 C2350.00240354 837.1427776 2344.29550536 831.3050503 2339 825 C2338.12344019 823.98997812 2337.24588725 822.98081698 2336.3671875 821.97265625 C2328.89188952 813.24366409 2321.90691375 804.1826788 2315 795 C2314.52127441 794.36449219 2314.04254883 793.72898437 2313.54931641 793.07421875 C2311.02518181 789.72186651 2308.508483 786.36408961 2306 783 C2305.29617187 784.02996094 2304.59234375 785.05992187 2303.8671875 786.12109375 C2294.50312808 799.68266874 2284.32506869 812.50110608 2273.16015625 824.62890625 C2271.99285396 825.91019466 2270.83254511 827.19885069 2269.71606445 828.5246582 C2263.88976507 835.39345133 2257.46806687 841.68236061 2251.09399414 848.03637695 C2249.0673702 850.05764268 2247.04614453 852.08419574 2245.02539062 854.11132812 C2238.85348077 860.28670858 2232.68696104 866.3775138 2226 872 C2224.8425126 873.02056451 2223.68756516 874.04401688 2222.53515625 875.0703125 C2213.99611843 882.60547602 2205.17539196 889.65922242 2196.04931641 896.46972656 C2194.12456209 897.90698652 2192.20831525 899.3549302 2190.29296875 900.8046875 C2111.86865881 959.72114946 2011.03518482 995.26611641 1912.7444334 995.13142776 C1911.2502537 995.13308177 1909.75607443 995.13517003 1908.26189587 995.13764787 C1904.17834367 995.14316799 1900.09481263 995.14255074 1896.01125792 995.14087028 C1891.55991481 995.14013492 1887.10857747 995.14517205 1882.65723687 995.1494453 C1873.83857782 995.15700183 1865.01992482 995.15921716 1856.20126286 995.15977435 C1845.63390145 995.16069031 1835.06654559 995.1673647 1824.49918659 995.17412117 C1798.96279149 995.19015927 1773.426397 995.19608186 1747.88999777 995.20086992 C1735.8037895 995.20320795 1723.71758171 995.20681082 1711.63137381 995.2105653 C1670.23844008 995.22339855 1628.8455066 995.23411817 1587.45257092 995.2375679 C1584.85559248 995.23778953 1582.25861404 995.23801132 1579.6616356 995.23823325 C1577.05848427 995.23845389 1574.45533294 995.23867437 1571.85218161 995.2388947 C1566.63005141 995.23933725 1561.40792121 995.23978436 1556.18579102 995.24023438 C1554.89101241 995.24034377 1553.59623381 995.24045316 1552.2622195 995.24056586 C1510.2854427 995.24419594 1468.30868317 995.26011532 1426.33191299 995.28342474 C1381.92478492 995.30803853 1337.51766672 995.32174145 1293.11053163 995.32293582 C1288.23279432 995.32310727 1283.35505702 995.32332269 1278.47731972 995.32357025 C1277.27633223 995.32362602 1276.07534474 995.32368179 1274.83796369 995.32373925 C1255.53846708 995.3248883 1236.23898824 995.33589777 1216.93949762 995.35045731 C1197.52981264 995.36484644 1178.12015037 995.36804564 1158.71046152 995.36001733 C1147.19122022 995.35557259 1135.6720524 995.35937533 1124.15282081 995.37525584 C1116.44300622 995.38504865 1108.73324278 995.38378679 1101.0234286 995.37381961 C1096.64064462 995.36845848 1092.25800114 995.36761641 1087.87522914 995.38032833 C1056.56150643 995.46526618 1025.86273308 993.25994093 996 983 C995.67 983.66 995.34 984.32 995 985 C987.87551466 983.63807372 981.49073179 981.43521744 974.8125 978.625 C973.7694873 978.18655762 972.72647461 977.74811523 971.65185547 977.29638672 C945.40874945 966.01537768 921.24831006 950.38466048 900.23046875 931.046875 C898.16703726 929.15328813 896.06425419 927.32173836 893.9375 925.5 C886.6829538 919.14863023 880.24402965 912.31631426 874.23046875 904.78125 C872.82468743 903.02833178 871.3928724 901.29568625 869.92578125 899.59375 C857.63195361 885.2320142 847.6476037 868.76702117 839 852 C838.65275879 851.33145996 838.30551758 850.66291992 837.94775391 849.97412109 C831.37320809 837.14857375 826.56779402 823.64815434 822 810 C821.73558105 809.2157666 821.47116211 808.4315332 821.19873047 807.62353516 C817.90754358 797.62189494 816.04468764 787.36768092 814.3125 777 C814.10979492 775.80938965 813.90708984 774.6187793 813.69824219 773.39208984 C809.90939333 749.39710128 809.69178769 725.26341607 809.68332577 701.0395596 C809.67957085 696.56688156 809.66438683 692.09423875 809.65071106 687.62158203 C809.62862216 679.90416219 809.61349952 672.18675519 809.60334396 664.46931076 C809.58865097 653.31169599 809.56308579 642.15412606 809.53501268 630.99653788 C809.48973563 612.88653853 809.45304273 594.77653264 809.421875 576.66650391 C809.39161072 559.09227353 809.35722478 541.51805904 809.31738281 523.94384766 C809.31492126 522.85743809 809.31245972 521.77102851 809.30992357 520.65169744 C809.29754745 515.2005637 809.28509121 509.74943015 809.27259517 504.29829669 C809.16931373 459.19888667 809.08001693 414.0994569 809 369 C805.85189126 371.35417003 802.70513531 373.71014207 799.55859375 376.06640625 C798.67957397 376.72370728 797.8005542 377.3810083 796.89489746 378.05822754 C791.23925273 382.29507091 785.62942266 386.58480182 780.0625 390.9375 C770.93485632 398.06919876 761.72286568 405.08682426 752.50146484 412.09667969 C748.74617436 414.95401373 744.99752832 417.81999697 741.25 420.6875 C740.56413818 421.212229 739.87827637 421.73695801 739.17163086 422.27758789 C737.80122704 423.32611635 736.43086544 424.37469997 735.06054688 425.42333984 C731.54099335 428.1163821 728.02043774 430.8081138 724.5 433.5 C723.08332872 434.58332729 721.66666204 435.66666062 720.25 436.75 C717.41666667 438.91666667 714.58333333 441.08333333 711.75 443.25 C710.6986084 444.05401245 710.6986084 444.05401245 709.62597656 444.87426758 C708.20607316 445.96006647 706.78615122 447.04584112 705.36621094 448.1315918 C701.87391567 450.80200585 698.38191954 453.47280895 694.890625 456.14453125 C687.10045983 462.10518793 679.30343056 468.0567183 671.5 474 C667.99981804 476.6664279 664.49984394 479.33312844 661 482 C659.86232178 482.8667334 659.86232178 482.8667334 658.70166016 483.75097656 C649.9142922 490.44817398 641.16346734 497.1897986 632.44848633 503.98095703 C628.14339846 507.33533994 623.82928042 510.67689656 619.5 514 C614.31684228 517.97898977 609.15557352 521.98534375 604 526 C598.84442648 530.01465625 593.68315772 534.02101023 588.5 538 C580.30301626 544.29429617 572.15396006 550.65013322 564 557 C554.82011989 564.14879829 545.63545618 571.28995283 536.40625 578.375 C532.2575857 581.56628023 528.12974227 584.78429818 524 588 C518.5280458 592.25936315 513.05409499 596.51597394 507.5625 600.75 C506.55316406 601.52859375 505.54382813 602.3071875 504.50390625 603.109375 C499.30414123 607.03556263 499.30414123 607.03556263 497.02270508 606.76879883 C494.91776764 605.96874476 493.42618417 605.05973304 491.63671875 603.69921875 C491.00507813 603.22291016 490.3734375 602.74660156 489.72265625 602.25585938 C489.05105469 601.73830078 488.37945312 601.22074219 487.6875 600.6875 C486.62789063 599.8821582 486.62789063 599.8821582 485.546875 599.06054688 C480.17813512 594.95982488 474.90129591 590.74873473 469.6472168 586.50268555 C465.17190406 582.89866227 460.61257088 579.42611484 456 576 C450.77296952 572.11617938 445.62982995 568.15258313 440.5625 564.0625 C434.62959199 559.27399097 428.61150521 554.61182256 422.54492188 549.99414062 C415.08327723 544.31196679 407.68463706 538.5501969 400.28808594 532.78369141 C396.42277659 529.77046583 392.55548127 526.75979468 388.6875 523.75 C387.55453491 522.8684021 387.55453491 522.8684021 386.39868164 521.96899414 C381.07363863 517.8282006 375.7308102 513.71149769 370.37890625 509.60546875 C367.87781818 507.68184329 365.3881434 505.74412035 362.90234375 503.80078125 C354.16122569 496.96935684 345.35413826 490.24130109 336.46264648 483.60668945 C330.17529015 478.90591342 323.97082608 474.10790805 317.7890625 469.26953125 C312.24516444 464.94140031 306.63688335 460.70611976 301 456.5 C293.88988125 451.19319699 286.85145449 445.80601217 279.86157227 440.34204102 C271.46638949 433.78609206 262.98113989 427.34933618 254.50146484 420.90332031 C250.74617436 418.04598627 246.99752832 415.18000303 243.25 412.3125 C242.22120728 411.52540649 242.22120728 411.52540649 241.17163086 410.72241211 C239.80122704 409.67388365 238.43086544 408.62530003 237.06054688 407.57666016 C233.54099335 404.8836179 230.02043774 402.1918862 226.5 399.5 C225.08332872 398.41667271 223.66666204 397.33333938 222.25 396.25 C221.54875 395.71375 220.8475 395.1775 220.125 394.625 C213.74999999 389.74999999 213.74999999 389.74999999 211.62182617 388.12255859 C210.21575744 387.04733908 208.80967042 385.97214347 207.40356445 384.89697266 C203.69959334 382.06470123 199.99601064 379.23192376 196.29296875 376.3984375 C195.52210938 375.80869141 194.75125 375.21894531 193.95703125 374.61132812 C192.48165348 373.48257525 191.0063869 372.35367702 189.53125 371.22460938 C188.86480469 370.71478516 188.19835937 370.20496094 187.51171875 369.6796875 C186.92865967 369.23351074 186.34560059 368.78733398 185.74487305 368.32763672 C183.83688307 366.87588781 181.91799907 365.4384993 180 364 C179.67 572.23 179.34 780.46 179 995 C119.93 995 60.86 995 0 995 C0 666.65 0 338.3 0 0 Z M1014 205 C1013.38898437 205.53753906 1012.77796875 206.07507813 1012.1484375 206.62890625 C1004.60925779 213.49678914 999.50588337 222.98823326 995 232 C995 274.57 995 317.14 995 361 C1171.88 361 1348.76 361 1531 361 C1531 419.74 1531 478.48 1531 539 C1354.12 539 1177.24 539 995 539 C973.95867095 676.49458053 973.95867095 676.49458053 1015.375 791.6875 C1034.44964792 810.1468367 1059.74181797 817.34809836 1085.79373932 817.26171303 C1087.00705354 817.26570909 1088.22036777 817.26970515 1089.47044909 817.27382231 C1092.80890241 817.28283827 1096.14713845 817.28308173 1099.48558728 817.27947159 C1103.13054371 817.27775254 1106.77547262 817.28765135 1110.42041731 817.29602563 C1116.80190061 817.30910876 1123.1833575 817.31488108 1129.56485367 817.31578636 C1139.06010796 817.31716679 1148.55532322 817.32998044 1158.0505644 817.3450741 C1174.05588666 817.3701908 1190.06120564 817.38606265 1206.06654358 817.39665604 C1221.98650309 817.40722095 1237.90645025 817.42189255 1253.82640076 817.44193649 C1255.31731987 817.44380979 1255.31731987 817.44380979 1256.83835856 817.44572094 C1261.88939397 817.45208741 1266.94042928 817.45852436 1271.99146456 817.46498732 C1307.81559226 817.51068823 1343.63972403 817.54709162 1379.46386719 817.578125 C1413.96843097 817.60803338 1448.47298579 817.64231951 1482.97753906 817.68261719 C1484.56066603 817.68446369 1484.56066603 817.68446369 1486.17577536 817.6863475 C1495.73158462 817.69749658 1505.28739383 817.70869536 1514.84320298 817.71994839 C1568.51343332 817.78311923 1622.18366819 817.8428821 1675.85390946 817.89601861 C1678.68158088 817.89882581 1681.50925227 817.90166064 1684.33692366 817.9045005 C1703.32597747 817.92351221 1722.31502873 817.94073849 1741.30408979 817.95049486 C1748.13614337 817.95402395 1754.96819678 817.95787527 1761.80025015 817.961777 C1763.47129871 817.96272064 1765.14234729 817.9636417 1766.81339588 817.96453986 C1788.68812539 817.97635775 1810.56251441 818.01619409 1832.43711259 818.09284647 C1837.40128339 818.10998414 1842.36545582 818.12435477 1847.32964087 818.13666427 C1848.35217646 818.1392002 1848.35217646 818.1392002 1849.39536933 818.14178736 C1852.75870433 818.15000938 1856.12203979 818.15782037 1859.48537645 818.16534316 C1865.79006821 818.18017529 1872.09463005 818.20035279 1878.39924717 818.23486066 C1912.8252065 818.64968658 1912.8252065 818.64968658 1947 815 C1948.0648912 814.81594439 1949.12978239 814.63188879 1950.22694302 814.44225574 C2021.38543441 801.90322856 2089.66162067 766.36899725 2137 711 C2137.91534972 709.96888149 2138.83210815 708.93901243 2139.75 707.91015625 C2189.95129874 651.16446378 2217.19927587 575.89522953 2217.25 500.4375 C2217.25067474 499.53160126 2217.25134949 498.62570251 2217.25204468 497.69235229 C2217.23389042 482.27735557 2216.45282744 467.24581819 2214 452 C2213.82839355 450.92830566 2213.65678711 449.85661133 2213.47998047 448.75244141 C2204.38810729 393.91682741 2181.55902646 341.8697453 2146 299 C2145.52933105 298.42781738 2145.05866211 297.85563477 2144.57373047 297.26611328 C2139.80859541 291.48548389 2135.01098296 285.80554775 2129.60546875 280.60546875 C2127.81696149 278.81696149 2126.19775667 276.9292354 2124.5625 275 C2121.6637364 271.64489003 2118.58143549 268.75101401 2115.19921875 265.890625 C2112.7519124 263.78672398 2110.41636083 261.58285736 2108.0625 259.375 C2089.51446233 242.53165166 2068.15844735 228.58867242 2046 217 C2045.33194336 216.64744141 2044.66388672 216.29488281 2043.97558594 215.93164062 C2001.23002053 193.49600659 1952.95833276 180.85958836 1904.62684631 180.84851074 C1903.20887794 180.84465062 1901.79091069 180.84036136 1900.37294477 180.83568525 C1896.50334162 180.82413792 1892.63375019 180.81858215 1888.76413333 180.81405044 C1884.57126257 180.80805792 1880.37840702 180.79639334 1876.18554688 180.78541565 C1868.89655531 180.76707357 1861.60756334 180.75221498 1854.31855965 180.73963928 C1843.61786358 180.72110671 1832.91718791 180.69642612 1822.21650808 180.67026538 C1804.63775403 180.62739217 1787.05899375 180.58837899 1769.48022461 180.55224609 C1767.90269659 180.54900189 1767.90269659 180.54900189 1766.29329931 180.54569215 C1762.04608845 180.53696391 1757.79887756 180.52824531 1753.55166665 180.51953927 C1718.84912124 180.44832006 1684.14658761 180.3719876 1649.44406945 180.28852788 C1646.40274207 180.28123221 1643.36141453 180.27400724 1640.32008696 180.26679301 C1575.49632649 180.11246265 1510.67564675 179.78045142 1445.85351467 179.30541706 C1445.12135211 179.30005372 1444.38918956 179.29469038 1443.63484025 179.28916451 C1439.97799464 179.26237176 1436.32114942 179.23552768 1432.66430485 179.20859182 C1385.99080992 178.86540029 1339.31656214 178.67266151 1292.64222664 178.48259079 C1284.08244002 178.44755285 1275.52266398 178.41044526 1266.96289062 178.37231445 C1240.55494372 178.25497752 1214.1470193 178.14819113 1187.73892975 178.06833458 C1174.92715917 178.02911891 1162.11551417 177.97896711 1149.30383754 177.91607207 C1140.19866428 177.87215456 1131.09349282 177.8394686 1121.9882462 177.81520158 C1116.68799139 177.80071515 1111.38787583 177.78130372 1106.08769989 177.74853325 C1101.20917116 177.71849212 1096.33080445 177.70284732 1091.45218754 177.69807696 C1089.68960308 177.69388957 1087.92702107 177.68461924 1086.16449642 177.66950727 C1057.91523801 177.43643317 1034.47967314 185.14876448 1014 205 Z " fill="#FFFFFF" transform="translate(0,64)"/>
<path d="M0 0 C5.05733498 0.00458852 10.11465705 -0.00249044 15.17198932 -0.00795984 C25.04103968 -0.01678805 34.91005937 -0.01496149 44.77911086 -0.00913456 C52.80932863 -0.0045922 60.83953789 -0.00401621 68.86975658 -0.00618219 C70.01869255 -0.00648866 71.16762853 -0.00679513 72.35138075 -0.00711088 C74.68641632 -0.00775042 77.02145188 -0.00839885 79.35648745 -0.00905606 C101.18002497 -0.01474003 123.00354561 -0.00823182 144.82708036 0.00254467 C163.49848037 0.01147961 182.1698555 0.00992483 200.84125507 0.00070715 C222.59564642 -0.01002773 244.35002303 -0.01419214 266.10441667 -0.00806832 C268.42989333 -0.00743132 270.75537 -0.00680257 273.08084667 -0.00618219 C274.22462158 -0.00587364 275.36839648 -0.00556509 276.54683124 -0.00524719 C284.55548399 -0.00352997 292.56412729 -0.00641419 300.57277858 -0.0111413 C310.34959327 -0.01678599 320.1263759 -0.01515896 329.90318698 -0.00457981 C334.87864323 0.00062888 339.85404629 0.00281705 344.82950199 -0.00387812 C431.03857398 -0.10988701 504.35174978 21.81130319 566.90839374 83.26144934 C569.37276107 85.83493995 571.64668146 88.51030045 573.90839374 91.26144934 C575.11302265 92.6343009 575.11302265 92.6343009 576.34198749 94.03488684 C616.61485467 140.07037566 641.45554223 202.57872653 640.97089374 263.94894934 C640.95951217 265.90714311 640.94855175 267.86533936 640.9379195 269.82353735 C640.93236765 270.84195621 640.92681581 271.86037506 640.92109573 272.90965509 C640.91690407 273.68574719 640.91271242 274.46183929 640.90839374 275.26144934 C620.22816726 276.11602092 599.57594268 276.4564038 578.88053477 276.56477237 C574.78203956 276.58713402 570.68357554 276.61426934 566.58510578 276.64082861 C558.8760328 276.69009582 551.1669419 276.73526991 543.4578349 276.77885097 C534.65924381 276.82879959 525.86068406 276.88349772 517.06212354 276.93853056 C499.01090957 277.05133341 480.95966578 277.15838059 462.90839374 277.26144934 C462.82897037 276.54929266 462.749547 275.83713598 462.66771686 275.1033988 C462.29967075 271.83504323 461.92245908 268.56780616 461.54511249 265.30051184 C461.35797687 263.62033972 461.35797687 263.62033972 461.16706073 261.90622473 C458.93599874 242.77583131 451.91907339 225.62138466 438.90839374 211.26144934 C438.17104999 210.43129309 437.43370624 209.60113684 436.67401874 208.74582434 C420.73229352 191.76215629 398.12763992 182.18535259 374.99653411 181.07339931 C370.54744866 180.97490083 366.09865433 180.98474448 361.64873493 180.9940238 C359.93172529 180.99028044 358.21471735 180.98567621 356.49771208 180.98029315 C351.81121981 180.96813231 347.1247993 180.96831541 342.43829489 180.97068191 C337.37127946 180.97109184 332.3042865 180.96003415 327.23728168 180.95056677 C317.32154182 180.93399354 307.40582575 180.92845888 297.4900732 180.92734201 C289.42466643 180.92638974 281.35926747 180.92227053 273.29386318 180.91594076 C250.39622906 180.89833799 227.49861364 180.88910032 204.6009727 180.89060171 C202.75151404 180.89072158 202.75151404 180.89072158 200.86469257 180.89084387 C199.63020394 180.89092563 198.39571531 180.89100739 197.12381793 180.89109163 C177.12745719 180.89190414 157.13117185 180.87277273 137.13483291 180.84456713 C116.57261377 180.81579364 96.01043135 180.80202931 75.44819158 180.80375469 C63.91621074 180.80441707 52.38430894 180.79899147 40.8523463 180.77739859 C31.03217808 180.75912791 21.21212471 180.75488758 11.39194679 180.76841743 C6.388915 180.77491759 1.3861032 180.77517191 -3.61690724 180.75771093 C-34.50109611 180.65682855 -61.75632444 181.55623014 -87.09160626 201.26144934 C-88.39871563 202.27465246 -88.39871563 202.27465246 -89.73223126 203.30832434 C-107.23541883 217.94935545 -117.60917049 239.77901215 -120.09160626 262.26144934 C-121.23948394 284.98492584 -118.41070154 307.15729247 -105.09160626 326.26144934 C-104.32590313 327.35973059 -104.32590313 327.35973059 -103.54473126 328.48019934 C-89.07381848 348.05038615 -68.20708192 361.29202419 -44.09160626 365.26144934 C-34.46479457 366.33696262 -24.83183476 366.4050722 -15.15877545 366.39275122 C-13.58572534 366.39445734 -12.01267566 366.39660882 -10.43962669 366.39916247 C-7.04207361 366.40372735 -3.64453866 366.40518668 -0.24698269 366.40419722 C5.28426812 366.40259334 10.81550116 366.40783056 16.34674823 366.4138236 C24.38136401 366.42191393 32.41597664 366.42687281 40.45059574 366.43011427 C53.17963467 366.43563595 65.90864717 366.45256059 78.63767231 366.47145605 C83.00298865 366.47781215 87.36830507 366.48412076 91.73362148 366.49043322 C92.82450709 366.49201698 93.9153927 366.49360074 95.03933545 366.4952325 C107.44246366 366.51314966 119.84559373 366.52938333 132.24872577 366.54440832 C133.3816387 366.54578419 134.51455163 366.54716006 135.68179525 366.54857763 C153.99909401 366.57046003 172.31638584 366.58125314 190.63369535 366.58877907 C209.49306424 366.59688402 228.35237456 366.62028421 247.21170998 366.65673274 C258.81224975 366.67861602 270.41266862 366.68846623 282.01322795 366.6822324 C289.98643745 366.67902849 297.95954462 366.69057854 305.93272243 366.71312682 C310.51382938 366.72564286 315.09470806 366.73215286 319.67582309 366.72071028 C346.58450956 366.65969616 373.09796522 367.94505167 399.34589374 374.51144934 C401.17978656 374.9564176 401.17978656 374.9564176 403.05072773 375.41037512 C428.16571963 381.67565552 452.0464383 391.1681677 474.90839374 403.26144934 C475.62591815 403.63882238 476.34344257 404.01619543 477.08271015 404.40500402 C488.23034674 410.30882718 498.69911586 416.85815703 508.90839374 424.26144934 C509.93392353 425.00080725 509.93392353 425.00080725 510.98017108 425.75510168 C518.78277849 431.40576705 526.26638561 437.19916207 533.28339374 443.81223059 C535.39624976 445.78360071 537.53865803 447.68221703 539.72479999 449.57004309 C543.92416554 453.23033416 547.90978255 457.07101749 551.84589374 461.01144934 C552.89184711 462.05752356 552.89184711 462.05752356 553.95893085 463.12473059 C558.54392591 467.76041511 562.81277761 472.4873804 566.81854999 477.63644934 C568.57369992 479.84104888 570.38283943 481.93607809 572.25604999 484.03879309 C575.85412025 488.12857568 579.10892077 492.40019273 582.28339374 496.82394934 C582.84647235 497.60769934 583.40955097 498.39144934 583.98969257 499.19894934 C588.61653554 505.71388213 592.85545068 512.37947232 596.80487812 519.32346106 C597.96680668 521.36403383 599.1487453 523.39232504 600.33026874 525.42160559 C641.71621922 597.31818947 651.51975077 683.850208 630.51801288 763.75095129 C616.86916924 813.53569962 590.8766457 862.51859088 553.50214374 898.66769934 C551.75643354 900.34840513 551.75643354 900.34840513 549.90839374 902.82394934 C547.6007168 905.63643061 545.04465235 907.84475393 542.27948749 910.19894934 C539.60603932 912.52445285 537.0477982 914.95447366 534.47089374 917.38644934 C478.67148158 969.06951142 400.63992082 995.48860667 325.35872638 995.39516211 C323.97267647 995.39703701 322.58662709 995.39934037 321.20057851 995.40202743 C317.4426569 995.40806823 313.68475778 995.4080211 309.92683244 995.40683305 C305.85365605 995.40662706 301.78048652 995.4121666 297.70731342 995.41689062 C289.74546623 995.4251556 281.78362645 995.42794359 273.82177532 995.428503 C267.34067736 995.42898022 260.85958181 995.43104516 254.37848461 995.43420362 C235.95090825 995.44299948 217.52333769 995.44762477 199.09575922 995.44687315 C198.10475625 995.44683319 197.11375328 995.44679324 196.09271991 995.44675207 C195.10048852 995.44671119 194.10825713 995.44667031 193.08595812 995.44662819 C177.02483632 995.4462222 160.96373801 995.4557827 144.90262301 995.46989044 C128.35974255 995.48430515 111.81687352 995.49115781 95.27398664 995.49029666 C86.00718997 995.48996641 76.74041793 995.49263749 67.47362697 995.50347471 C59.58057287 995.51264716 51.68755454 995.51470035 43.79449738 995.50796529 C39.77921067 995.50473349 35.76399233 995.50451987 31.74871242 995.51331854 C8.69565543 995.56065652 -14.25987131 995.0360942 -37.02910626 991.07394934 C-38.27651593 990.8596427 -39.5239256 990.64533606 -40.80913556 990.42453527 C-69.38672128 985.30335078 -97.00214447 975.96119562 -123.09160626 963.26144934 C-123.86633282 962.88439856 -124.64105938 962.50734777 -125.43926251 962.11887121 C-145.8127857 952.06815986 -164.52697195 939.63013878 -182.09160626 925.26144934 C-182.6668504 924.80189856 -183.24209454 924.34234777 -183.83477032 923.86887121 C-192.566921 916.88939164 -200.48503978 909.07159797 -208.40410626 901.19894934 C-208.91652874 900.69188452 -209.42895123 900.1848197 -209.95690167 899.66238928 C-216.80471822 892.86894881 -223.11846311 885.85291279 -229.09160626 878.26144934 C-229.56718976 877.67081701 -230.04277325 877.08018469 -230.53276837 876.47165442 C-268.82146258 828.89237828 -291.54956638 770.25202223 -297.40410626 709.63644934 C-297.48056378 708.85817785 -297.5570213 708.07990637 -297.63579571 707.2780509 C-298.37577092 698.24942263 -298.09160626 689.38022322 -298.09160626 680.26144934 C-239.35160626 680.26144934 -180.61160626 680.26144934 -120.09160626 680.26144934 C-119.36550117 683.16586971 -118.92808575 685.44188665 -118.73223126 688.35910559 C-116.61317913 715.8787905 -107.59244911 742.60107518 -90.09160626 764.26144934 C-89.64945782 764.81429602 -89.20730938 765.3671427 -88.75176251 765.93674231 C-82.22787697 774.03634953 -75.51592641 781.07429304 -67.09160626 787.26144934 C-66.10805157 787.99750402 -65.12449688 788.73355871 -64.11113751 789.49191809 C-40.34860809 806.64226541 -13.69405248 815.42168108 15.61905658 815.40189123 C17.01144071 815.40447829 18.4038241 815.4074924 19.79620647 815.41089463 C23.60851791 815.41892818 27.42081048 815.42075217 31.23312938 815.4214921 C35.35062269 815.42334909 39.46810636 815.43089976 43.58559406 815.43762732 C52.58397448 815.45118633 61.58235044 815.45723187 70.58073938 815.46163797 C76.20590007 815.46440513 81.83105906 815.46864339 87.4562186 815.47314215 C103.04853127 815.4853328 118.64084257 815.49563176 134.2331599 815.49901724 C135.72897659 815.49934659 135.72897659 815.49934659 137.2550118 815.49968259 C138.75429825 815.50001001 138.75429825 815.50001001 140.28387332 815.50034404 C142.30910409 815.5007875 144.33433485 815.50123406 146.35956562 815.50168371 C147.86642483 815.50201586 147.86642483 815.50201586 149.40372564 815.50235471 C165.66409144 815.50629872 181.92441233 815.52374153 198.18476079 815.54704323 C214.90250621 815.57080578 231.62022914 815.58322136 248.33799171 815.58438516 C257.71480503 815.58529929 267.09155984 815.59098513 276.46835697 815.60920477 C284.45660404 815.62467223 292.44477453 815.62968736 300.43303375 815.62146667 C304.50211243 815.61758323 308.57103721 815.61837549 312.64009655 815.63252401 C332.09617554 815.69628009 350.94947676 815.62571563 369.53339374 809.07394934 C370.40600849 808.77351721 371.27862323 808.47308508 372.17768085 808.16354895 C408.7522046 795.17449698 436.126004 768.30446779 452.62714374 733.65207434 C466.97758335 700.11890422 466.33199407 662.87382432 452.90839374 629.26144934 C438.8282666 596.20559975 412.65307117 570.32878095 379.68427265 556.31613684 C361.71038219 549.10872445 343.73002626 546.11054009 324.43361652 546.11668921 C322.84950478 546.1135522 321.26539387 546.10997665 319.68128401 546.10600179 C315.33889293 546.09633496 310.996515 546.09275838 306.65411472 546.09015882 C301.96600529 546.08625505 297.27790737 546.07661785 292.58980548 546.06760168 C284.46613857 546.05267658 276.34247257 546.04112541 268.21879756 546.03165388 C256.45050225 546.01775566 244.68222824 545.99656278 232.91394826 545.97322535 C213.78978734 545.93531623 194.66562255 545.90035421 175.54145038 545.86862707 C174.39710561 545.86672658 173.25276084 545.86482609 172.07373895 545.862868 C155.85780531 545.83607383 139.64186867 545.81218932 123.42592885 545.789483 C122.28552557 545.7878857 121.14512228 545.7862884 119.97016132 545.7846427 C118.83115628 545.78304923 117.69215124 545.78145576 116.5186309 545.77981401 C97.48094167 545.75298312 78.44327502 545.71855575 59.40561014 545.67798895 C47.67872977 545.65330279 35.95187361 545.63492666 24.22497144 545.62483334 C16.17472212 545.61740356 8.12450536 545.60281932 0.07427768 545.5827691 C-4.56017672 545.57145575 -9.19457883 545.56323855 -13.82904828 545.56377745 C-49.50735311 545.56400668 -49.50735311 545.56400668 -67.09160626 543.26144934 C-68.23850524 543.11276183 -69.38540423 542.96407433 -70.56705773 542.81088114 C-73.17188133 542.45405919 -75.75357803 542.03624183 -78.34160626 541.57394934 C-79.27649884 541.40806311 -80.21139142 541.24217688 -81.17461407 541.07126379 C-150.38563544 528.11282397 -210.35052696 487.90487129 -250.09160626 430.26144934 C-282.06509243 383.1715872 -298.30233545 330.0258103 -298.34160626 273.19894934 C-298.342281 272.31739172 -298.34295575 271.4358341 -298.34365094 270.52756262 C-298.25413697 196.52042853 -269.51369121 128.80399424 -217.46660626 76.38644934 C-210.95546886 69.9153707 -204.42913187 63.7904299 -197.09160626 58.26144934 C-195.89557069 57.32617536 -194.70031654 56.38990158 -193.50566876 55.45285559 C-136.18341871 10.95249918 -70.58211456 -0.09504196 0 0 Z " fill="#FFFFFF" transform="translate(3541.091606259346,65.73855066299438)"/>
<path d="M0 0 C0.66 0 1.32 0 2 0 C2.34144043 0.68811768 2.68288086 1.37623535 3.03466797 2.08520508 C11.26383897 18.68682158 11.26383897 18.68682158 19.8125 35.125 C24.36761518 43.67132733 28.68608434 52.33038982 33 61 C37.2309963 69.50285534 41.46045653 77.99809287 45.9375 86.375 C51.03233681 95.91012862 55.81611664 105.59889318 60.63299561 115.27624512 C65.05035367 124.14734766 69.51211866 132.98195198 74.18359375 141.72265625 C78.6395512 150.11122045 82.83157409 158.63257933 87.06280518 167.13586426 C90.94099482 174.92628829 94.83523881 182.69934056 98.9375 190.375 C103.63307178 199.16289301 108.06058247 208.08099678 112.5 217 C119.12121028 230.31594415 119.12121028 230.31594415 126 243.5 C131.07582883 252.99269041 135.83706094 262.64097935 140.63327026 272.27679443 C145.05053662 281.14771379 149.51221521 289.98213264 154.18359375 298.72265625 C158.6395512 307.11122045 162.83157409 315.63257933 167.06280518 324.13586426 C170.94099482 331.92628829 174.83523881 339.69934056 178.9375 347.375 C184.03233681 356.91012862 188.81611664 366.59889318 193.63299561 376.27624512 C198.05035367 385.14734766 202.51211866 393.98195198 207.18359375 402.72265625 C211.6395512 411.11122045 215.83157409 419.63257933 220.06280518 428.13586426 C223.94099482 435.92628829 227.83523881 443.69934056 231.9375 451.375 C236.63307178 460.16289301 241.06058247 469.08099678 245.5 478 C252.12121028 491.31594415 252.12121028 491.31594415 259 504.5 C264.07582883 513.99269041 268.83706094 523.64097935 273.63327026 533.27679443 C278.05053662 542.14771379 282.51221521 550.98213264 287.18359375 559.72265625 C291.6395512 568.11122045 295.83157409 576.63257933 300.06280518 585.13586426 C303.94099482 592.92628829 307.83523881 600.69934056 311.9375 608.375 C317.03233681 617.91012862 321.81611664 627.59889318 326.63299561 637.27624512 C331.05035367 646.14734766 335.51211866 654.98195198 340.18359375 663.72265625 C344.6395512 672.11122045 348.83157409 680.63257933 353.06280518 689.13586426 C356.94099482 696.92628829 360.83523881 704.69934056 364.9375 712.375 C370.03233681 721.91012862 374.81611664 731.59889318 379.63299561 741.27624512 C384.05035367 750.14734766 388.51211866 758.98195198 393.18359375 767.72265625 C397.63779028 776.10790542 401.82828794 784.62582964 406.05776978 793.12579346 C410.4094247 801.8675207 414.82006926 810.56600241 419.4140625 819.18359375 C423.25796548 826.4199346 426.89215699 833.75754346 430.5378418 841.09521484 C434.02185696 848.09009262 437.61376408 855.01792313 441.28125 861.91796875 C444.93833215 868.82319415 448.41996096 875.81079483 451.89477539 882.80908203 C454.85223884 888.74900599 457.88723654 894.64009927 461 900.5 C464.60352871 907.28378579 468.08389821 914.11996023 471.5 921 C475.27852608 928.60988945 479.1604896 936.15222848 483.14916992 943.65380859 C487.16944205 951.24880517 490.997505 958.93735323 494.80249023 966.64208984 C495.27630127 967.59809082 495.7501123 968.5540918 496.23828125 969.5390625 C496.92398193 970.9317334 496.92398193 970.9317334 497.62353516 972.35253906 C498.92327573 974.8524303 500.36549018 977.1967346 501.85546875 979.5859375 C504 984 504 984 504 994 C439.32 994 374.64 994 308 994 C299.90484095 978.38790755 291.81537799 962.77876836 283.83224487 947.11004639 C281.25349133 942.04888275 278.67154214 936.98934943 276.08984375 931.9296875 C275.5721492 930.91496368 275.05445465 929.90023987 274.52107239 928.85476685 C269.67316702 919.35468599 264.80777197 909.86362907 259.9375 900.375 C252.29040593 885.47508327 244.66282902 870.56527683 237.04455566 855.65060425 C231.8547622 845.49048131 226.66103209 835.3324424 221.44921875 825.18359375 C221.00537842 824.31926727 220.56153809 823.4549408 220.10424805 822.56442261 C218.37451291 819.19611469 216.64476264 815.82781455 214.91485596 812.45959473 C209.96114127 802.81180366 205.04368069 793.14893474 200.22583008 783.43237305 C197.68752678 778.32818231 195.05225817 773.2825056 192.375 768.25 C187.76167467 759.5764252 183.37608992 750.79470424 179 742 C174.36708628 732.68930819 169.69467639 723.41327222 164.796875 714.23828125 C160.55035094 706.239015 156.54409171 698.11974301 152.51095581 690.01165771 C148.75481059 682.46394843 144.96840533 674.93907846 141 667.5 C136.33479163 658.75471109 131.9251617 649.8858436 127.51123047 641.01220703 C123.75499357 633.46431463 119.96850172 625.93925915 116 618.5 C111.68311726 610.40767406 107.58440371 602.21115244 103.5 594 C99.43631653 585.83053403 95.3597743 577.67503096 91.0625 569.625 C86.17309593 560.46362514 81.56548857 551.16546002 76.9397583 541.8692627 C72.65879761 533.26967818 68.32096077 524.71319535 63.796875 516.23828125 C59.55035094 508.239015 55.54409171 500.11974301 51.51095581 492.01165771 C47.75481059 484.46394843 43.96840533 476.93907846 40 469.5 C35.33726656 460.75935053 30.92973965 451.89530238 26.51828003 443.02630615 C22.61466985 435.18196321 18.67194732 427.3642148 14.5625 419.625 C11.44639376 413.7554987 8.36835723 407.87074972 5.375 401.9375 C5.03154541 401.26348145 4.68809082 400.58946289 4.33422852 399.89501953 C2 395.23630621 2 395.23630621 2 393 C1.34 393 0.68 393 0 393 C-0.36448242 394.21683472 -0.36448242 394.21683472 -0.73632812 395.45825195 C-2.25414958 399.71231607 -4.18642704 403.6402201 -6.21875 407.66796875 C-6.63612427 408.50225906 -7.05349854 409.33654938 -7.48352051 410.19612122 C-8.36927976 411.96462448 -9.25697848 413.73215752 -10.14648438 415.4987793 C-11.47192656 418.1317329 -12.79119993 420.76769895 -14.109375 423.40429688 C-18.7749308 432.71540387 -23.53806804 441.96751757 -28.41149902 451.1714325 C-32.05584621 458.06827372 -35.55810852 465.03016256 -39.01931763 472.02032471 C-43.96242246 481.99882822 -48.95874404 491.93748455 -54.203125 501.76171875 C-58.1026544 509.10734389 -61.79640315 516.55444835 -65.5 524 C-69.56368814 532.16946368 -73.64022562 540.32496889 -77.9375 548.375 C-82.45347681 556.83667669 -86.72753803 565.41376654 -91 574 C-95.60964961 583.26383818 -100.25788313 592.49320876 -105.1328125 601.62109375 C-109.60286497 610.04314624 -113.81319324 618.59557393 -118.06051636 627.13128662 C-122.3413853 635.73068793 -126.67913571 644.28698538 -131.203125 652.76171875 C-135.1026544 660.10734389 -138.79640315 667.55444835 -142.5 675 C-146.56368814 683.16946368 -150.64022562 691.32496889 -154.9375 699.375 C-159.45347681 707.83667669 -163.72753803 716.41376654 -168 725 C-172.60964961 734.26383818 -177.25788313 743.49320876 -182.1328125 752.62109375 C-186.60216103 761.04181996 -190.81187896 769.592874 -195.0585022 778.1272583 C-199.38662219 786.82166359 -203.77303281 795.47287402 -208.34375 804.04296875 C-212.43593484 811.74832014 -216.2964921 819.56736573 -220.17993164 827.37939453 C-223.80075241 834.64665887 -227.51966759 841.85130055 -231.33203125 849.01953125 C-234.97367011 855.8903256 -238.43694983 862.84501551 -241.89501953 869.80957031 C-245.24235468 876.53253791 -248.70746224 883.18420669 -252.23046875 889.81640625 C-255.41406687 895.83210112 -258.47323409 901.90407651 -261.5 908 C-265.30539379 915.6640844 -269.21642321 923.25980623 -273.23046875 930.81640625 C-276.41406994 936.83210691 -279.47303006 942.90417351 -282.5 949 C-290.03413939 964.16237269 -298.03212228 979.06022928 -306 994 C-372 994 -438 994 -506 994 C-503.75283447 987.2585034 -503.75283447 987.2585034 -502.00390625 984.03125 C-501.61589844 983.30679688 -501.22789062 982.58234375 -500.828125 981.8359375 C-500.41046875 981.06507813 -499.9928125 980.29421875 -499.5625 979.5 C-495.7608393 972.38721546 -492.08180274 965.22594196 -488.5 958 C-484.69517398 950.33564066 -480.78356899 942.74017909 -476.76953125 935.18359375 C-473.58593313 929.16789888 -470.52676591 923.09592349 -467.5 917 C-463.69460621 909.3359156 -459.78357679 901.74019377 -455.76953125 894.18359375 C-452.58593313 888.16789888 -449.52676591 882.09592349 -446.5 876 C-442.69460621 868.3359156 -438.78357679 860.74019377 -434.76953125 853.18359375 C-431.58593299 847.16789861 -428.5267806 841.095916 -425.5 835 C-422.18713881 828.32824168 -418.81546221 821.69889242 -415.3125 815.125 C-410.71832757 806.49398098 -406.35536645 797.75299358 -402 789 C-397.76901217 780.49714053 -393.53954332 772.00190684 -389.0625 763.625 C-384.36692822 754.83710699 -379.93941753 745.91900322 -375.5 737 C-370.72971328 727.41629255 -365.9349817 717.85910613 -360.88671875 708.41796875 C-356.60506982 700.35586726 -352.56737428 692.17151777 -348.5 684 C-343.72970912 674.41629466 -338.93498175 664.85910623 -333.88671875 655.41796875 C-329.20764381 646.60753667 -324.81161499 637.6531937 -320.36672974 628.72320557 C-315.94946338 619.85228621 -311.48778479 611.01786736 -306.81640625 602.27734375 C-302.73332951 594.59074627 -298.87716625 586.79173927 -295 579 C-290.76898678 570.49715289 -286.53954378 562.0019077 -282.0625 553.625 C-277.36692822 544.83710699 -272.93941753 535.91900322 -268.5 527 C-263.72971328 517.41629255 -258.9349817 507.85910613 -253.88671875 498.41796875 C-249.60506982 490.35586726 -245.56737428 482.17151777 -241.5 474 C-236.72970912 464.41629466 -231.93498175 454.85910623 -226.88671875 445.41796875 C-222.60506982 437.35586726 -218.56737428 429.17151777 -214.5 421 C-209.72970912 411.41629466 -204.93498175 401.85910623 -199.88671875 392.41796875 C-195.20764381 383.60753667 -190.81161499 374.6531937 -186.36672974 365.72320557 C-181.94946338 356.85228621 -177.48778479 348.01786736 -172.81640625 339.27734375 C-168.73332951 331.59074627 -164.87716625 323.79173927 -161 316 C-156.76898678 307.49715289 -152.53954378 299.0019077 -148.0625 290.625 C-143.36692822 281.83710699 -138.93941753 272.91900322 -134.5 264 C-129.72971328 254.41629255 -124.9349817 244.85910613 -119.88671875 235.41796875 C-115.60506982 227.35586726 -111.56737428 219.17151777 -107.5 211 C-102.72970912 201.41629466 -97.93498175 191.85910623 -92.88671875 182.41796875 C-88.60506982 174.35586726 -84.56737428 166.17151777 -80.5 158 C-75.72970912 148.41629466 -70.93498175 138.85910623 -65.88671875 129.41796875 C-61.20764381 120.60753667 -56.81161499 111.6531937 -52.36672974 102.72320557 C-47.94946338 93.85228621 -43.48778479 85.01786736 -38.81640625 76.27734375 C-34.36326629 67.89408362 -30.17368342 59.37822032 -25.94525146 50.88024902 C-21.52973626 42.01010454 -17.05450544 33.18256783 -12.39697266 24.4362793 C-8.10844899 16.36924349 -4.05028085 8.18861128 0 0 Z " fill="#FFFFFF" transform="translate(4591,49)"/>
<path d="M0 0 C2.52602793 -0.00435253 5.05205455 -0.00953748 7.57807922 -0.01548767 C13.70282951 -0.02744867 19.82751927 -0.03003601 25.95227894 -0.02768741 C30.93657214 -0.02589699 35.92085211 -0.02766932 40.90514374 -0.03191185 C41.61729264 -0.03250704 42.32944154 -0.03310223 43.06317072 -0.03371545 C44.51039634 -0.03492734 45.95762197 -0.03614147 47.40484759 -0.03735783 C60.94775863 -0.04821007 74.49064472 -0.04608204 88.03355715 -0.03997298 C100.38850942 -0.03480744 112.74338277 -0.04605384 125.09831944 -0.0650712 C137.82163015 -0.08450357 150.54490362 -0.09269607 163.26822925 -0.08894795 C170.39642864 -0.08704387 177.52456092 -0.08944536 184.65274811 -0.10366249 C191.36041143 -0.11690683 198.06789228 -0.11424341 204.77556419 -0.1012516 C207.22597241 -0.09889846 209.67639189 -0.10157476 212.12678719 -0.10987473 C241.87455478 -0.20330713 267.268061 5.03960269 291.01855469 24.2746582 C292.00082031 25.02682617 292.00082031 25.02682617 293.00292969 25.79418945 C298.51991496 30.18500112 302.72780008 35.72191694 307.01855469 41.2746582 C307.93314453 42.43094727 307.93314453 42.43094727 308.86621094 43.6105957 C326.26224155 66.83172084 328.3337705 93.23650555 328.28000402 121.21181726 C328.27543842 124.73198865 328.28248346 128.2521409 328.28796387 131.77230835 C328.29681607 138.65056897 328.29495457 145.52878571 328.28913859 152.40704799 C328.28460558 158.00156305 328.28401625 163.5960659 328.28618622 169.19058228 C328.28649268 169.98949806 328.28679915 170.78841384 328.2871149 171.61153919 C328.28775441 173.23496747 328.28840284 174.85839576 328.28906009 176.48182404 C328.29475116 191.67326925 328.28822474 206.86469025 328.27745935 222.05613148 C328.26852496 235.06616032 328.27007735 248.07615345 328.27929688 261.08618164 C328.29002117 276.22654272 328.29420195 291.36688262 328.28807235 306.50724697 C328.28743531 308.12440935 328.28680657 309.74157174 328.28618622 311.35873413 C328.28587767 312.15422631 328.28556912 312.94971849 328.28525122 313.76931649 C328.28353074 319.35139402 328.28642534 324.93345802 328.29114532 330.51553345 C328.29677822 337.32639376 328.29518739 344.13720803 328.28458384 350.94806314 C328.27935934 354.41717704 328.27721476 357.88621442 328.28388214 361.35532761 C328.32901737 392.3073052 324.32938347 418.80378015 304.01855469 443.2746582 C303.32117187 444.13575195 302.62378906 444.9968457 301.90527344 445.8840332 C285.31420114 465.41721522 261.16714704 476.97812414 236.01855469 480.2746582 C232.24122859 480.52432085 228.48332287 480.54998801 224.69866943 480.53535461 C223.62573112 480.53918016 222.5527928 480.54300571 221.4473412 480.54694718 C217.88736891 480.5571848 214.32756069 480.55330268 210.76757812 480.54931641 C208.20066683 480.55366803 205.63375684 480.55885268 203.06684875 480.56480408 C196.8386966 480.57749944 190.61058766 480.5793512 184.38242474 480.57700381 C179.31467041 480.57521446 174.24692911 480.57698348 169.17917633 480.58122826 C168.45550177 480.58182345 167.73182721 480.58241863 166.98622312 480.58303186 C165.51564222 480.58424373 164.04506133 480.58545786 162.57448044 480.58667424 C148.80841833 480.59753018 135.04238075 480.5953967 121.27631727 480.58928939 C108.71369753 480.58412367 96.15115541 480.59537003 83.58855101 480.61438761 C70.65622462 480.63381314 57.72393486 480.64201366 44.79159379 480.63826436 C37.54436325 480.63635923 30.29719872 480.63877215 23.04998016 480.6529789 C16.23071322 480.66621259 9.41160335 480.66356894 2.59233665 480.65056801 C0.09958276 480.64821274 -2.39318217 480.65089894 -4.88592339 480.65919113 C-34.72422234 480.75123786 -59.91255907 475.1001158 -82.98144531 455.2746582 C-83.97337891 454.49928711 -83.97337891 454.49928711 -84.98535156 453.70825195 C-104.45602555 438.01370868 -116.14025356 412.36337422 -118.77371359 387.87276447 C-119.16164797 383.02085869 -119.12575481 378.16873523 -119.12188721 373.30397034 C-119.12485833 372.12475051 -119.12782945 370.94553069 -119.13089061 369.73057693 C-119.13803083 366.47919719 -119.14074679 363.2278498 -119.14148808 359.97646344 C-119.14334926 356.46090114 -119.15090192 352.94535005 -119.15762329 349.42979431 C-119.17116493 341.75167916 -119.17722501 334.07356926 -119.18163395 326.39544415 C-119.18440384 321.59325314 -119.18864257 316.79106411 -119.19313812 311.98887444 C-119.2053261 298.67064446 -119.21562585 285.35241607 -119.21901321 272.03418064 C-119.21923278 271.18291758 -119.21945235 270.33165453 -119.21967857 269.45459562 C-119.22000598 268.17479 -119.22000598 268.17479 -119.22034001 266.86912972 C-119.22078347 265.14045497 -119.22123003 263.41178022 -119.22167969 261.68310547 C-119.22190112 260.82563829 -119.22212255 259.9681711 -119.22235069 259.08472007 C-119.22629421 245.20732927 -119.24373674 231.32999112 -119.26703921 217.45262063 C-119.29081739 203.17567004 -119.30321802 188.89874579 -119.30438113 174.62177509 C-119.30529435 166.61766402 -119.31095685 158.61362154 -119.32920074 150.6095295 C-119.34468941 143.79060274 -119.34967105 136.97176579 -119.34146264 130.15282477 C-119.33758667 126.68118278 -119.33833374 123.20972113 -119.35251999 119.73810196 C-119.47202061 84.50084998 -113.18300584 55.45162171 -87.54394531 29.4621582 C-62.83578769 5.15789074 -33.33582408 -0.03800581 0 0 Z " fill="#FFFFFF" transform="translate(7087.9814453125,291.725341796875)"/>
<path d="M0 0 C58.74 0 117.48 0 178 0 C178 111.54 178 223.08 178 338 C175.84931803 334.77397704 174.75250137 331.6100205 173.56640625 327.96484375 C173.08408199 326.51429073 172.60114587 325.06394105 172.11767578 323.61376953 C171.86471741 322.85147034 171.61175903 322.08917114 171.35113525 321.30377197 C159.63198497 286.1408792 144.36770571 252.6128365 125 221 C124.48195801 220.14728516 123.96391602 219.29457031 123.43017578 218.41601562 C110.88326364 197.828278 96.45822747 178.48925246 81 160 C80.34741211 159.21786133 80.34741211 159.21786133 79.68164062 158.41992188 C66.25275538 142.37723386 52.00284381 126.33198632 36.03515625 112.7578125 C33.59171962 110.6473586 31.24081179 108.44707121 28.875 106.25 C22.53224642 100.46223735 15.798685 95.23722878 9 90 C6.03 87.69 3.06 85.38 0 83 C0 55.61 0 28.22 0 0 Z " fill="#FFFFFF" transform="translate(2224,58)"/>
</svg>
